<?xml version="1.0" encoding="UTF-8" standalone="no"?>
<!DOCTYPE svg PUBLIC "-//W3C//DTD SVG 1.1//EN"
 "http://www.w3.org/Graphics/SVG/1.1/DTD/svg11.dtd">
<!-- Generated by graphviz version 2.47.0 (20210316.0004)
 -->
<!-- Title: dependencies Pages: 1 -->
<svg width="883pt" height="284pt"
 viewBox="0.00 0.00 883.00 284.00" xmlns="http://www.w3.org/2000/svg" xmlns:xlink="http://www.w3.org/1999/xlink">
<g id="graph0" class="graph" transform="scale(1 1) rotate(0) translate(4 280)">
<title>dependencies</title>
<polygon fill="white" stroke="transparent" points="-4,4 -4,-280 879,-280 879,4 -4,4"/>
<text text-anchor="start" x="416.51" y="-42.4" font-family="Times-12" font-weight="bold" font-size="14.00">Legend</text>
<polygon fill="#ffffb3" stroke="transparent" points="203.5,-10 203.5,-30 223.5,-30 223.5,-10 203.5,-10"/>
<text text-anchor="start" x="227.13" y="-15.4" font-family="Times-12" font-size="14.00"> &#160;Declarations</text>
<polygon fill="#8dd3c7" stroke="transparent" points="316.5,-10 316.5,-30 336.5,-30 336.5,-10 316.5,-10"/>
<text text-anchor="start" x="340.23" y="-15.4" font-family="Times-12" font-size="14.00"> &#160;Module</text>
<polygon fill="#80b1d3" stroke="transparent" points="402.5,-10 402.5,-30 422.5,-30 422.5,-10 402.5,-10"/>
<text text-anchor="start" x="426.28" y="-15.4" font-family="Times-12" font-size="14.00"> &#160;Bootstrap</text>
<polygon fill="#fdb462" stroke="transparent" points="499.5,-10 499.5,-30 519.5,-30 519.5,-10 499.5,-10"/>
<text text-anchor="start" x="523.17" y="-15.4" font-family="Times-12" font-size="14.00"> &#160;Providers</text>
<polygon fill="#fb8072" stroke="transparent" points="595.5,-10 595.5,-30 615.5,-30 615.5,-10 595.5,-10"/>
<text text-anchor="start" x="619.23" y="-15.4" font-family="Times-12" font-size="14.00"> &#160;Exports</text>
<g id="clust1" class="cluster">
<title>cluster_UsersModule</title>
<polygon fill="none" stroke="black" stroke-dasharray="1,5" points="8,-70 8,-268 867,-268 867,-70 8,-70"/>
</g>
<g id="clust6" class="cluster">
<title>cluster_UsersModule_providers</title>
<polygon fill="none" stroke="black" points="16,-78 16,-130 859,-130 859,-78 16,-78"/>
</g>
<g id="clust4" class="cluster">
<title>cluster_UsersModule_exports</title>
<polygon fill="none" stroke="black" points="345,-208 345,-260 449,-260 449,-208 345,-208"/>
</g>
<!-- UserService  -->
<g id="node1" class="node">
<title>UserService </title>
<polygon fill="#fb8072" stroke="black" points="440.9,-252 353.1,-252 353.1,-216 440.9,-216 440.9,-252"/>
<text text-anchor="middle" x="397" y="-229.8" font-family="Times,serif" font-size="14.00">UserService </text>
</g>
<!-- UsersModule -->
<g id="node2" class="node">
<title>UsersModule</title>
<polygon fill="#8dd3c7" stroke="black" points="442.92,-187 439.92,-191 418.92,-191 415.92,-187 351.08,-187 351.08,-151 442.92,-151 442.92,-187"/>
<text text-anchor="middle" x="397" y="-164.8" font-family="Times,serif" font-size="14.00">UsersModule</text>
</g>
<!-- UsersModule&#45;&gt;UserService  -->
<g id="edge1" class="edge">
<title>UsersModule&#45;&gt;UserService </title>
<path fill="none" stroke="black" stroke-dasharray="5,2" d="M397,-187.11C397,-187.11 397,-205.99 397,-205.99"/>
<polygon fill="black" stroke="black" points="393.5,-205.99 397,-215.99 400.5,-205.99 393.5,-205.99"/>
</g>
<!-- CreateUserProvider -->
<g id="node3" class="node">
<title>CreateUserProvider</title>
<ellipse fill="#fdb462" stroke="black" cx="763" cy="-104" rx="87.94" ry="18"/>
<text text-anchor="middle" x="763" y="-99.8" font-family="Times,serif" font-size="14.00">CreateUserProvider</text>
</g>
<!-- CreateUserProvider&#45;&gt;UsersModule -->
<g id="edge2" class="edge">
<title>CreateUserProvider&#45;&gt;UsersModule</title>
<path fill="none" stroke="black" d="M763,-122.11C763,-141.34 763,-169 763,-169 763,-169 452.98,-169 452.98,-169"/>
<polygon fill="black" stroke="black" points="452.98,-165.5 442.98,-169 452.98,-172.5 452.98,-165.5"/>
</g>
<!-- FindOneUserByEmailProvider -->
<g id="node4" class="node">
<title>FindOneUserByEmailProvider</title>
<ellipse fill="#fdb462" stroke="black" cx="527" cy="-104" rx="130.8" ry="18"/>
<text text-anchor="middle" x="527" y="-99.8" font-family="Times,serif" font-size="14.00">FindOneUserByEmailProvider</text>
</g>
<!-- FindOneUserByEmailProvider&#45;&gt;UsersModule -->
<g id="edge3" class="edge">
<title>FindOneUserByEmailProvider&#45;&gt;UsersModule</title>
<path fill="none" stroke="black" d="M419.53,-114.44C419.53,-114.44 419.53,-140.97 419.53,-140.97"/>
<polygon fill="black" stroke="black" points="416.03,-140.97 419.53,-150.97 423.03,-140.97 416.03,-140.97"/>
</g>
<!-- UserCreateManyProvider -->
<g id="node5" class="node">
<title>UserCreateManyProvider</title>
<ellipse fill="#fdb462" stroke="black" cx="268" cy="-104" rx="110.49" ry="18"/>
<text text-anchor="middle" x="268" y="-99.8" font-family="Times,serif" font-size="14.00">UserCreateManyProvider</text>
</g>
<!-- UserCreateManyProvider&#45;&gt;UsersModule -->
<g id="edge4" class="edge">
<title>UserCreateManyProvider&#45;&gt;UsersModule</title>
<path fill="none" stroke="black" d="M364.77,-112.77C364.77,-112.77 364.77,-140.8 364.77,-140.8"/>
<polygon fill="black" stroke="black" points="361.27,-140.8 364.77,-150.8 368.27,-140.8 361.27,-140.8"/>
</g>
<!-- UserService -->
<g id="node6" class="node">
<title>UserService</title>
<ellipse fill="#fdb462" stroke="black" cx="82" cy="-104" rx="58.44" ry="18"/>
<text text-anchor="middle" x="82" y="-99.8" font-family="Times,serif" font-size="14.00">UserService</text>
</g>
<!-- UserService&#45;&gt;UsersModule -->
<g id="edge5" class="edge">
<title>UserService&#45;&gt;UsersModule</title>
<path fill="none" stroke="black" d="M82,-122.11C82,-141.34 82,-169 82,-169 82,-169 341.2,-169 341.2,-169"/>
<polygon fill="black" stroke="black" points="341.2,-172.5 351.2,-169 341.2,-165.5 341.2,-172.5"/>
</g>
</g>
</svg>
