<?xml version="1.0" encoding="UTF-8" standalone="no"?>
<!DOCTYPE svg PUBLIC "-//W3C//DTD SVG 1.1//EN"
 "http://www.w3.org/Graphics/SVG/1.1/DTD/svg11.dtd">
<!-- Generated by graphviz version 2.47.0 (20210316.0004)
 -->
<!-- Title: dependencies Pages: 1 -->
<svg width="504pt" height="284pt"
 viewBox="0.00 0.00 504.00 284.00" xmlns="http://www.w3.org/2000/svg" xmlns:xlink="http://www.w3.org/1999/xlink">
<g id="graph0" class="graph" transform="scale(1 1) rotate(0) translate(4 280)">
<title>dependencies</title>
<polygon fill="white" stroke="transparent" points="-4,4 -4,-280 500,-280 500,4 -4,4"/>
<text text-anchor="start" x="227.01" y="-42.4" font-family="Times-12" font-weight="bold" font-size="14.00">Legend</text>
<polygon fill="#ffffb3" stroke="transparent" points="14,-10 14,-30 34,-30 34,-10 14,-10"/>
<text text-anchor="start" x="37.63" y="-15.4" font-family="Times-12" font-size="14.00"> &#160;Declarations</text>
<polygon fill="#8dd3c7" stroke="transparent" points="127,-10 127,-30 147,-30 147,-10 127,-10"/>
<text text-anchor="start" x="150.73" y="-15.4" font-family="Times-12" font-size="14.00"> &#160;Module</text>
<polygon fill="#80b1d3" stroke="transparent" points="213,-10 213,-30 233,-30 233,-10 213,-10"/>
<text text-anchor="start" x="236.78" y="-15.4" font-family="Times-12" font-size="14.00"> &#160;Bootstrap</text>
<polygon fill="#fdb462" stroke="transparent" points="310,-10 310,-30 330,-30 330,-10 310,-10"/>
<text text-anchor="start" x="333.67" y="-15.4" font-family="Times-12" font-size="14.00"> &#160;Providers</text>
<polygon fill="#fb8072" stroke="transparent" points="406,-10 406,-30 426,-30 426,-10 406,-10"/>
<text text-anchor="start" x="429.73" y="-15.4" font-family="Times-12" font-size="14.00"> &#160;Exports</text>
<g id="clust1" class="cluster">
<title>cluster_UsersModule</title>
<polygon fill="none" stroke="black" stroke-dasharray="1,5" points="55,-70 55,-268 441,-268 441,-70 55,-70"/>
</g>
<g id="clust4" class="cluster">
<title>cluster_UsersModule_exports</title>
<polygon fill="none" stroke="black" points="170,-208 170,-260 274,-260 274,-208 170,-208"/>
</g>
<g id="clust6" class="cluster">
<title>cluster_UsersModule_providers</title>
<polygon fill="none" stroke="black" points="63,-78 63,-130 433,-130 433,-78 63,-78"/>
</g>
<!-- UserService  -->
<g id="node1" class="node">
<title>UserService </title>
<polygon fill="#fb8072" stroke="black" points="265.9,-252 178.1,-252 178.1,-216 265.9,-216 265.9,-252"/>
<text text-anchor="middle" x="222" y="-229.8" font-family="Times,serif" font-size="14.00">UserService </text>
</g>
<!-- UsersModule -->
<g id="node2" class="node">
<title>UsersModule</title>
<polygon fill="#8dd3c7" stroke="black" points="267.92,-187 264.92,-191 243.92,-191 240.92,-187 176.08,-187 176.08,-151 267.92,-151 267.92,-187"/>
<text text-anchor="middle" x="222" y="-164.8" font-family="Times,serif" font-size="14.00">UsersModule</text>
</g>
<!-- UsersModule&#45;&gt;UserService  -->
<g id="edge1" class="edge">
<title>UsersModule&#45;&gt;UserService </title>
<path fill="none" stroke="black" stroke-dasharray="5,2" d="M222,-187.11C222,-187.11 222,-205.99 222,-205.99"/>
<polygon fill="black" stroke="black" points="218.5,-205.99 222,-215.99 225.5,-205.99 218.5,-205.99"/>
</g>
<!-- UserCreateManyProvider -->
<g id="node3" class="node">
<title>UserCreateManyProvider</title>
<ellipse fill="#fdb462" stroke="black" cx="315" cy="-104" rx="110.49" ry="18"/>
<text text-anchor="middle" x="315" y="-99.8" font-family="Times,serif" font-size="14.00">UserCreateManyProvider</text>
</g>
<!-- UserCreateManyProvider&#45;&gt;UsersModule -->
<g id="edge2" class="edge">
<title>UserCreateManyProvider&#45;&gt;UsersModule</title>
<path fill="none" stroke="black" d="M236.23,-116.84C236.23,-116.84 236.23,-140.52 236.23,-140.52"/>
<polygon fill="black" stroke="black" points="232.73,-140.52 236.23,-150.52 239.73,-140.52 232.73,-140.52"/>
</g>
<!-- UserService -->
<g id="node4" class="node">
<title>UserService</title>
<ellipse fill="#fdb462" stroke="black" cx="129" cy="-104" rx="58.44" ry="18"/>
<text text-anchor="middle" x="129" y="-99.8" font-family="Times,serif" font-size="14.00">UserService</text>
</g>
<!-- UserService&#45;&gt;UsersModule -->
<g id="edge3" class="edge">
<title>UserService&#45;&gt;UsersModule</title>
<path fill="none" stroke="black" d="M181.75,-111.71C181.75,-111.71 181.75,-140.99 181.75,-140.99"/>
<polygon fill="black" stroke="black" points="178.26,-140.99 181.75,-150.99 185.26,-140.99 178.26,-140.99"/>
</g>
</g>
</svg>
