<?xml version="1.0" encoding="UTF-8" standalone="no"?>
<!DOCTYPE svg PUBLIC "-//W3C//DTD SVG 1.1//EN"
 "http://www.w3.org/Graphics/SVG/1.1/DTD/svg11.dtd">
<!-- Generated by graphviz version 2.47.0 (20210316.0004)
 -->
<!-- Title: dependencies Pages: 1 -->
<svg width="718pt" height="211pt"
 viewBox="0.00 0.00 718.00 211.00" xmlns="http://www.w3.org/2000/svg" xmlns:xlink="http://www.w3.org/1999/xlink">
<g id="graph0" class="graph" transform="scale(1 1) rotate(0) translate(4 207)">
<title>dependencies</title>
<polygon fill="white" stroke="transparent" points="-4,4 -4,-207 714,-207 714,4 -4,4"/>
<text text-anchor="start" x="334.01" y="-42.4" font-family="Times-12" font-weight="bold" font-size="14.00">Legend</text>
<polygon fill="#ffffb3" stroke="transparent" points="121,-10 121,-30 141,-30 141,-10 121,-10"/>
<text text-anchor="start" x="144.63" y="-15.4" font-family="Times-12" font-size="14.00"> &#160;Declarations</text>
<polygon fill="#8dd3c7" stroke="transparent" points="234,-10 234,-30 254,-30 254,-10 234,-10"/>
<text text-anchor="start" x="257.73" y="-15.4" font-family="Times-12" font-size="14.00"> &#160;Module</text>
<polygon fill="#80b1d3" stroke="transparent" points="320,-10 320,-30 340,-30 340,-10 320,-10"/>
<text text-anchor="start" x="343.78" y="-15.4" font-family="Times-12" font-size="14.00"> &#160;Bootstrap</text>
<polygon fill="#fdb462" stroke="transparent" points="417,-10 417,-30 437,-30 437,-10 417,-10"/>
<text text-anchor="start" x="440.67" y="-15.4" font-family="Times-12" font-size="14.00"> &#160;Providers</text>
<polygon fill="#fb8072" stroke="transparent" points="513,-10 513,-30 533,-30 533,-10 513,-10"/>
<text text-anchor="start" x="536.73" y="-15.4" font-family="Times-12" font-size="14.00"> &#160;Exports</text>
<g id="clust1" class="cluster">
<title>cluster_PostModule</title>
<polygon fill="none" stroke="black" stroke-dasharray="1,5" points="8,-70 8,-195 702,-195 702,-70 8,-70"/>
</g>
<g id="clust3" class="cluster">
<title>cluster_PostModule_imports</title>
<polygon fill="none" stroke="black" points="344,-78 344,-130 694,-130 694,-78 344,-78"/>
</g>
<g id="clust6" class="cluster">
<title>cluster_PostModule_providers</title>
<polygon fill="none" stroke="black" points="16,-78 16,-130 336,-130 336,-78 16,-78"/>
</g>
<!-- PaginationModule -->
<g id="node1" class="node">
<title>PaginationModule</title>
<polygon fill="#8dd3c7" stroke="black" points="685.93,-122 682.93,-126 661.93,-126 658.93,-122 566.07,-122 566.07,-86 685.93,-86 685.93,-122"/>
<text text-anchor="middle" x="626" y="-99.8" font-family="Times,serif" font-size="14.00">PaginationModule</text>
</g>
<!-- PostModule -->
<g id="node4" class="node">
<title>PostModule</title>
<polygon fill="#8dd3c7" stroke="black" points="439.67,-187 436.67,-191 415.67,-191 412.67,-187 356.33,-187 356.33,-151 439.67,-151 439.67,-187"/>
<text text-anchor="middle" x="398" y="-164.8" font-family="Times,serif" font-size="14.00">PostModule</text>
</g>
<!-- PaginationModule&#45;&gt;PostModule -->
<g id="edge1" class="edge">
<title>PaginationModule&#45;&gt;PostModule</title>
<path fill="none" stroke="black" d="M626,-122.28C626,-143.32 626,-175 626,-175 626,-175 449.82,-175 449.82,-175"/>
<polygon fill="black" stroke="black" points="449.82,-171.5 439.82,-175 449.82,-178.5 449.82,-171.5"/>
</g>
<!-- TagsModule -->
<g id="node2" class="node">
<title>TagsModule</title>
<polygon fill="#8dd3c7" stroke="black" points="548.26,-122 545.26,-126 524.26,-126 521.26,-122 461.74,-122 461.74,-86 548.26,-86 548.26,-122"/>
<text text-anchor="middle" x="505" y="-99.8" font-family="Times,serif" font-size="14.00">TagsModule</text>
</g>
<!-- TagsModule&#45;&gt;PostModule -->
<g id="edge2" class="edge">
<title>TagsModule&#45;&gt;PostModule</title>
<path fill="none" stroke="black" d="M505,-122.02C505,-139.37 505,-163 505,-163 505,-163 449.68,-163 449.68,-163"/>
<polygon fill="black" stroke="black" points="449.68,-159.5 439.68,-163 449.68,-166.5 449.68,-159.5"/>
</g>
<!-- UsersModule -->
<g id="node3" class="node">
<title>UsersModule</title>
<polygon fill="#8dd3c7" stroke="black" points="443.92,-122 440.92,-126 419.92,-126 416.92,-122 352.08,-122 352.08,-86 443.92,-86 443.92,-122"/>
<text text-anchor="middle" x="398" y="-99.8" font-family="Times,serif" font-size="14.00">UsersModule</text>
</g>
<!-- UsersModule&#45;&gt;PostModule -->
<g id="edge3" class="edge">
<title>UsersModule&#45;&gt;PostModule</title>
<path fill="none" stroke="black" d="M398,-122.11C398,-122.11 398,-140.99 398,-140.99"/>
<polygon fill="black" stroke="black" points="394.5,-140.99 398,-150.99 401.5,-140.99 394.5,-140.99"/>
</g>
<!-- CreatePostProvider -->
<g id="node5" class="node">
<title>CreatePostProvider</title>
<ellipse fill="#fdb462" stroke="black" cx="242" cy="-104" rx="86.25" ry="18"/>
<text text-anchor="middle" x="242" y="-99.8" font-family="Times,serif" font-size="14.00">CreatePostProvider</text>
</g>
<!-- CreatePostProvider&#45;&gt;PostModule -->
<g id="edge4" class="edge">
<title>CreatePostProvider&#45;&gt;PostModule</title>
<path fill="none" stroke="black" d="M242,-122.02C242,-139.37 242,-163 242,-163 242,-163 346.19,-163 346.19,-163"/>
<polygon fill="black" stroke="black" points="346.19,-166.5 356.19,-163 346.19,-159.5 346.19,-166.5"/>
</g>
<!-- PostService -->
<g id="node6" class="node">
<title>PostService</title>
<ellipse fill="#fdb462" stroke="black" cx="81" cy="-104" rx="56.76" ry="18"/>
<text text-anchor="middle" x="81" y="-99.8" font-family="Times,serif" font-size="14.00">PostService</text>
</g>
<!-- PostService&#45;&gt;PostModule -->
<g id="edge5" class="edge">
<title>PostService&#45;&gt;PostModule</title>
<path fill="none" stroke="black" d="M81,-122.28C81,-143.32 81,-175 81,-175 81,-175 346.23,-175 346.23,-175"/>
<polygon fill="black" stroke="black" points="346.23,-178.5 356.23,-175 346.23,-171.5 346.23,-178.5"/>
</g>
</g>
</svg>
