<?xml version="1.0" encoding="UTF-8" standalone="no"?>
<!DOCTYPE svg PUBLIC "-//W3C//DTD SVG 1.1//EN"
 "http://www.w3.org/Graphics/SVG/1.1/DTD/svg11.dtd">
<!-- Generated by graphviz version 2.47.0 (20210316.0004)
 -->
<!-- Title: dependencies Pages: 1 -->
<svg width="528pt" height="211pt"
 viewBox="0.00 0.00 528.00 211.00" xmlns="http://www.w3.org/2000/svg" xmlns:xlink="http://www.w3.org/1999/xlink">
<g id="graph0" class="graph" transform="scale(1 1) rotate(0) translate(4 207)">
<title>dependencies</title>
<polygon fill="white" stroke="transparent" points="-4,4 -4,-207 524,-207 524,4 -4,4"/>
<text text-anchor="start" x="239.01" y="-42.4" font-family="Times-12" font-weight="bold" font-size="14.00">Legend</text>
<polygon fill="#ffffb3" stroke="transparent" points="26,-10 26,-30 46,-30 46,-10 26,-10"/>
<text text-anchor="start" x="49.63" y="-15.4" font-family="Times-12" font-size="14.00"> &#160;Declarations</text>
<polygon fill="#8dd3c7" stroke="transparent" points="139,-10 139,-30 159,-30 159,-10 139,-10"/>
<text text-anchor="start" x="162.73" y="-15.4" font-family="Times-12" font-size="14.00"> &#160;Module</text>
<polygon fill="#80b1d3" stroke="transparent" points="225,-10 225,-30 245,-30 245,-10 225,-10"/>
<text text-anchor="start" x="248.78" y="-15.4" font-family="Times-12" font-size="14.00"> &#160;Bootstrap</text>
<polygon fill="#fdb462" stroke="transparent" points="322,-10 322,-30 342,-30 342,-10 322,-10"/>
<text text-anchor="start" x="345.67" y="-15.4" font-family="Times-12" font-size="14.00"> &#160;Providers</text>
<polygon fill="#fb8072" stroke="transparent" points="418,-10 418,-30 438,-30 438,-10 418,-10"/>
<text text-anchor="start" x="441.73" y="-15.4" font-family="Times-12" font-size="14.00"> &#160;Exports</text>
<g id="clust1" class="cluster">
<title>cluster_PostModule</title>
<polygon fill="none" stroke="black" stroke-dasharray="1,5" points="8,-70 8,-195 512,-195 512,-70 8,-70"/>
</g>
<g id="clust3" class="cluster">
<title>cluster_PostModule_imports</title>
<polygon fill="none" stroke="black" points="154,-78 154,-130 504,-130 504,-78 154,-78"/>
</g>
<g id="clust6" class="cluster">
<title>cluster_PostModule_providers</title>
<polygon fill="none" stroke="black" points="16,-78 16,-130 146,-130 146,-78 16,-78"/>
</g>
<!-- PaginationModule -->
<g id="node1" class="node">
<title>PaginationModule</title>
<polygon fill="#8dd3c7" stroke="black" points="495.93,-122 492.93,-126 471.93,-126 468.93,-122 376.07,-122 376.07,-86 495.93,-86 495.93,-122"/>
<text text-anchor="middle" x="436" y="-99.8" font-family="Times,serif" font-size="14.00">PaginationModule</text>
</g>
<!-- PostModule -->
<g id="node4" class="node">
<title>PostModule</title>
<polygon fill="#8dd3c7" stroke="black" points="302.67,-187 299.67,-191 278.67,-191 275.67,-187 219.33,-187 219.33,-151 302.67,-151 302.67,-187"/>
<text text-anchor="middle" x="261" y="-164.8" font-family="Times,serif" font-size="14.00">PostModule</text>
</g>
<!-- PaginationModule&#45;&gt;PostModule -->
<g id="edge1" class="edge">
<title>PaginationModule&#45;&gt;PostModule</title>
<path fill="none" stroke="black" d="M436,-122.11C436,-141.34 436,-169 436,-169 436,-169 312.92,-169 312.92,-169"/>
<polygon fill="black" stroke="black" points="312.92,-165.5 302.92,-169 312.92,-172.5 312.92,-165.5"/>
</g>
<!-- TagsModule -->
<g id="node2" class="node">
<title>TagsModule</title>
<polygon fill="#8dd3c7" stroke="black" points="358.26,-122 355.26,-126 334.26,-126 331.26,-122 271.74,-122 271.74,-86 358.26,-86 358.26,-122"/>
<text text-anchor="middle" x="315" y="-99.8" font-family="Times,serif" font-size="14.00">TagsModule</text>
</g>
<!-- TagsModule&#45;&gt;PostModule -->
<g id="edge2" class="edge">
<title>TagsModule&#45;&gt;PostModule</title>
<path fill="none" stroke="black" d="M287.23,-122.11C287.23,-122.11 287.23,-140.99 287.23,-140.99"/>
<polygon fill="black" stroke="black" points="283.73,-140.99 287.23,-150.99 290.73,-140.99 283.73,-140.99"/>
</g>
<!-- UsersModule -->
<g id="node3" class="node">
<title>UsersModule</title>
<polygon fill="#8dd3c7" stroke="black" points="253.92,-122 250.92,-126 229.92,-126 226.92,-122 162.08,-122 162.08,-86 253.92,-86 253.92,-122"/>
<text text-anchor="middle" x="208" y="-99.8" font-family="Times,serif" font-size="14.00">UsersModule</text>
</g>
<!-- UsersModule&#45;&gt;PostModule -->
<g id="edge3" class="edge">
<title>UsersModule&#45;&gt;PostModule</title>
<path fill="none" stroke="black" d="M236.44,-122.11C236.44,-122.11 236.44,-140.99 236.44,-140.99"/>
<polygon fill="black" stroke="black" points="232.94,-140.99 236.44,-150.99 239.94,-140.99 232.94,-140.99"/>
</g>
<!-- PostService -->
<g id="node5" class="node">
<title>PostService</title>
<ellipse fill="#fdb462" stroke="black" cx="81" cy="-104" rx="56.76" ry="18"/>
<text text-anchor="middle" x="81" y="-99.8" font-family="Times,serif" font-size="14.00">PostService</text>
</g>
<!-- PostService&#45;&gt;PostModule -->
<g id="edge4" class="edge">
<title>PostService&#45;&gt;PostModule</title>
<path fill="none" stroke="black" d="M81,-122.11C81,-141.34 81,-169 81,-169 81,-169 209.25,-169 209.25,-169"/>
<polygon fill="black" stroke="black" points="209.25,-172.5 219.25,-169 209.25,-165.5 209.25,-172.5"/>
</g>
</g>
</svg>
