<?xml version="1.0" encoding="UTF-8" standalone="no"?>
<!DOCTYPE svg PUBLIC "-//W3C//DTD SVG 1.1//EN"
 "http://www.w3.org/Graphics/SVG/1.1/DTD/svg11.dtd">
<!-- Generated by graphviz version 2.47.0 (20210316.0004)
 -->
<!-- Title: dependencies Pages: 1 -->
<svg width="1114pt" height="211pt"
 viewBox="0.00 0.00 1114.00 211.00" xmlns="http://www.w3.org/2000/svg" xmlns:xlink="http://www.w3.org/1999/xlink">
<g id="graph0" class="graph" transform="scale(1 1) rotate(0) translate(4 207)">
<title>dependencies</title>
<polygon fill="white" stroke="transparent" points="-4,4 -4,-207 1110,-207 1110,4 -4,4"/>
<text text-anchor="start" x="532.01" y="-42.4" font-family="Times-12" font-weight="bold" font-size="14.00">Legend</text>
<polygon fill="#ffffb3" stroke="transparent" points="319,-10 319,-30 339,-30 339,-10 319,-10"/>
<text text-anchor="start" x="342.63" y="-15.4" font-family="Times-12" font-size="14.00"> &#160;Declarations</text>
<polygon fill="#8dd3c7" stroke="transparent" points="432,-10 432,-30 452,-30 452,-10 432,-10"/>
<text text-anchor="start" x="455.73" y="-15.4" font-family="Times-12" font-size="14.00"> &#160;Module</text>
<polygon fill="#80b1d3" stroke="transparent" points="518,-10 518,-30 538,-30 538,-10 518,-10"/>
<text text-anchor="start" x="541.78" y="-15.4" font-family="Times-12" font-size="14.00"> &#160;Bootstrap</text>
<polygon fill="#fdb462" stroke="transparent" points="615,-10 615,-30 635,-30 635,-10 615,-10"/>
<text text-anchor="start" x="638.67" y="-15.4" font-family="Times-12" font-size="14.00"> &#160;Providers</text>
<polygon fill="#fb8072" stroke="transparent" points="711,-10 711,-30 731,-30 731,-10 711,-10"/>
<text text-anchor="start" x="734.73" y="-15.4" font-family="Times-12" font-size="14.00"> &#160;Exports</text>
<g id="clust1" class="cluster">
<title>cluster_AppModule</title>
<polygon fill="none" stroke="black" stroke-dasharray="1,5" points="8,-70 8,-195 1098,-195 1098,-70 8,-70"/>
</g>
<g id="clust6" class="cluster">
<title>cluster_AppModule_providers</title>
<polygon fill="none" stroke="black" points="960,-78 960,-130 1090,-130 1090,-78 960,-78"/>
</g>
<g id="clust3" class="cluster">
<title>cluster_AppModule_imports</title>
<polygon fill="none" stroke="black" points="16,-78 16,-130 952,-130 952,-78 16,-78"/>
</g>
<!-- AuthModule -->
<g id="node1" class="node">
<title>AuthModule</title>
<polygon fill="#8dd3c7" stroke="black" points="943.55,-122 940.55,-126 919.55,-126 916.55,-122 856.45,-122 856.45,-86 943.55,-86 943.55,-122"/>
<text text-anchor="middle" x="900" y="-99.8" font-family="Times,serif" font-size="14.00">AuthModule</text>
</g>
<!-- AppModule -->
<g id="node9" class="node">
<title>AppModule</title>
<polygon fill="#8dd3c7" stroke="black" points="505.66,-187 502.66,-191 481.66,-191 478.66,-187 422.34,-187 422.34,-151 505.66,-151 505.66,-187"/>
<text text-anchor="middle" x="464" y="-164.8" font-family="Times,serif" font-size="14.00">AppModule</text>
</g>
<!-- AuthModule&#45;&gt;AppModule -->
<g id="edge1" class="edge">
<title>AuthModule&#45;&gt;AppModule</title>
<path fill="none" stroke="black" d="M900,-122.13C900,-142.57 900,-173 900,-173 900,-173 515.81,-173 515.81,-173"/>
<polygon fill="black" stroke="black" points="515.81,-169.5 505.81,-173 515.81,-176.5 515.81,-169.5"/>
</g>
<!-- MailModule -->
<g id="node2" class="node">
<title>MailModule</title>
<polygon fill="#8dd3c7" stroke="black" points="837.99,-122 834.99,-126 813.99,-126 810.99,-122 752.01,-122 752.01,-86 837.99,-86 837.99,-122"/>
<text text-anchor="middle" x="795" y="-99.8" font-family="Times,serif" font-size="14.00">MailModule</text>
</g>
<!-- MailModule&#45;&gt;AppModule -->
<g id="edge2" class="edge">
<title>MailModule&#45;&gt;AppModule</title>
<path fill="none" stroke="black" d="M795,-122.27C795,-140.56 795,-166 795,-166 795,-166 515.92,-166 515.92,-166"/>
<polygon fill="black" stroke="black" points="515.92,-162.5 505.92,-166 515.92,-169.5 515.92,-162.5"/>
</g>
<!-- MetaOptionsModule -->
<g id="node3" class="node">
<title>MetaOptionsModule</title>
<polygon fill="#8dd3c7" stroke="black" points="734.15,-122 731.15,-126 710.15,-126 707.15,-122 601.85,-122 601.85,-86 734.15,-86 734.15,-122"/>
<text text-anchor="middle" x="668" y="-99.8" font-family="Times,serif" font-size="14.00">MetaOptionsModule</text>
</g>
<!-- MetaOptionsModule&#45;&gt;AppModule -->
<g id="edge3" class="edge">
<title>MetaOptionsModule&#45;&gt;AppModule</title>
<path fill="none" stroke="black" d="M668,-122.01C668,-138.05 668,-159 668,-159 668,-159 515.77,-159 515.77,-159"/>
<polygon fill="black" stroke="black" points="515.77,-155.5 505.77,-159 515.77,-162.5 515.77,-155.5"/>
</g>
<!-- PaginationModule -->
<g id="node4" class="node">
<title>PaginationModule</title>
<polygon fill="#8dd3c7" stroke="black" points="583.93,-122 580.93,-126 559.93,-126 556.93,-122 464.07,-122 464.07,-86 583.93,-86 583.93,-122"/>
<text text-anchor="middle" x="524" y="-99.8" font-family="Times,serif" font-size="14.00">PaginationModule</text>
</g>
<!-- PaginationModule&#45;&gt;AppModule -->
<g id="edge4" class="edge">
<title>PaginationModule&#45;&gt;AppModule</title>
<path fill="none" stroke="black" d="M485.06,-122.11C485.06,-122.11 485.06,-140.99 485.06,-140.99"/>
<polygon fill="black" stroke="black" points="481.56,-140.99 485.06,-150.99 488.56,-140.99 481.56,-140.99"/>
</g>
<!-- PostModule -->
<g id="node5" class="node">
<title>PostModule</title>
<polygon fill="#8dd3c7" stroke="black" points="445.67,-122 442.67,-126 421.67,-126 418.67,-122 362.33,-122 362.33,-86 445.67,-86 445.67,-122"/>
<text text-anchor="middle" x="404" y="-99.8" font-family="Times,serif" font-size="14.00">PostModule</text>
</g>
<!-- PostModule&#45;&gt;AppModule -->
<g id="edge5" class="edge">
<title>PostModule&#45;&gt;AppModule</title>
<path fill="none" stroke="black" d="M434,-122.11C434,-122.11 434,-140.99 434,-140.99"/>
<polygon fill="black" stroke="black" points="430.5,-140.99 434,-150.99 437.5,-140.99 430.5,-140.99"/>
</g>
<!-- TagsModule -->
<g id="node6" class="node">
<title>TagsModule</title>
<polygon fill="#8dd3c7" stroke="black" points="344.26,-122 341.26,-126 320.26,-126 317.26,-122 257.74,-122 257.74,-86 344.26,-86 344.26,-122"/>
<text text-anchor="middle" x="301" y="-99.8" font-family="Times,serif" font-size="14.00">TagsModule</text>
</g>
<!-- TagsModule&#45;&gt;AppModule -->
<g id="edge6" class="edge">
<title>TagsModule&#45;&gt;AppModule</title>
<path fill="none" stroke="black" d="M315.46,-122.01C315.46,-138.05 315.46,-159 315.46,-159 315.46,-159 412.23,-159 412.23,-159"/>
<polygon fill="black" stroke="black" points="412.23,-162.5 422.23,-159 412.23,-155.5 412.23,-162.5"/>
</g>
<!-- TagsModule&#45;&gt;AppModule -->
<g id="edge7" class="edge">
<title>TagsModule&#45;&gt;AppModule</title>
<path fill="none" stroke="black" d="M286.54,-122.27C286.54,-140.56 286.54,-166 286.54,-166 286.54,-166 411.94,-166 411.94,-166"/>
<polygon fill="black" stroke="black" points="411.94,-169.5 421.94,-166 411.94,-162.5 411.94,-169.5"/>
</g>
<!-- UploadsModule -->
<g id="node7" class="node">
<title>UploadsModule</title>
<polygon fill="#8dd3c7" stroke="black" points="240.21,-122 237.21,-126 216.21,-126 213.21,-122 133.79,-122 133.79,-86 240.21,-86 240.21,-122"/>
<text text-anchor="middle" x="187" y="-99.8" font-family="Times,serif" font-size="14.00">UploadsModule</text>
</g>
<!-- UploadsModule&#45;&gt;AppModule -->
<g id="edge8" class="edge">
<title>UploadsModule&#45;&gt;AppModule</title>
<path fill="none" stroke="black" d="M187,-122.13C187,-142.57 187,-173 187,-173 187,-173 412.23,-173 412.23,-173"/>
<polygon fill="black" stroke="black" points="412.23,-176.5 422.23,-173 412.23,-169.5 412.23,-176.5"/>
</g>
<!-- UsersModule -->
<g id="node8" class="node">
<title>UsersModule</title>
<polygon fill="#8dd3c7" stroke="black" points="115.92,-122 112.92,-126 91.92,-126 88.92,-122 24.08,-122 24.08,-86 115.92,-86 115.92,-122"/>
<text text-anchor="middle" x="70" y="-99.8" font-family="Times,serif" font-size="14.00">UsersModule</text>
</g>
<!-- UsersModule&#45;&gt;AppModule -->
<g id="edge9" class="edge">
<title>UsersModule&#45;&gt;AppModule</title>
<path fill="none" stroke="black" d="M70,-122.01C70,-144.49 70,-180 70,-180 70,-180 412.21,-180 412.21,-180"/>
<polygon fill="black" stroke="black" points="412.21,-183.5 422.21,-180 412.21,-176.5 412.21,-183.5"/>
</g>
<!-- AppService -->
<g id="node10" class="node">
<title>AppService</title>
<ellipse fill="#fdb462" stroke="black" cx="1025" cy="-104" rx="56.74" ry="18"/>
<text text-anchor="middle" x="1025" y="-99.8" font-family="Times,serif" font-size="14.00">AppService</text>
</g>
<!-- AppService&#45;&gt;AppModule -->
<g id="edge10" class="edge">
<title>AppService&#45;&gt;AppModule</title>
<path fill="none" stroke="black" d="M1025,-122.01C1025,-144.49 1025,-180 1025,-180 1025,-180 515.71,-180 515.71,-180"/>
<polygon fill="black" stroke="black" points="515.71,-176.5 505.71,-180 515.71,-183.5 515.71,-176.5"/>
</g>
</g>
</svg>
