<?xml version="1.0" encoding="UTF-8" standalone="no"?>
<!DOCTYPE svg PUBLIC "-//W3C//DTD SVG 1.1//EN"
 "http://www.w3.org/Graphics/SVG/1.1/DTD/svg11.dtd">
<!-- Generated by graphviz version 2.47.0 (20210316.0004)
 -->
<!-- Title: dependencies Pages: 1 -->
<svg width="3584pt" height="363pt"
 viewBox="0.00 0.00 3584.00 363.00" xmlns="http://www.w3.org/2000/svg" xmlns:xlink="http://www.w3.org/1999/xlink">
<g id="graph0" class="graph" transform="scale(1 1) rotate(0) translate(4 359)">
<title>dependencies</title>
<polygon fill="white" stroke="transparent" points="-4,4 -4,-359 3580,-359 3580,4 -4,4"/>
<text text-anchor="start" x="1767.01" y="-42.4" font-family="Times-12" font-weight="bold" font-size="14.00">Legend</text>
<polygon fill="#ffffb3" stroke="transparent" points="1554,-10 1554,-30 1574,-30 1574,-10 1554,-10"/>
<text text-anchor="start" x="1577.63" y="-15.4" font-family="Times-12" font-size="14.00"> &#160;Declarations</text>
<polygon fill="#8dd3c7" stroke="transparent" points="1667,-10 1667,-30 1687,-30 1687,-10 1667,-10"/>
<text text-anchor="start" x="1690.73" y="-15.4" font-family="Times-12" font-size="14.00"> &#160;Module</text>
<polygon fill="#80b1d3" stroke="transparent" points="1753,-10 1753,-30 1773,-30 1773,-10 1753,-10"/>
<text text-anchor="start" x="1776.78" y="-15.4" font-family="Times-12" font-size="14.00"> &#160;Bootstrap</text>
<polygon fill="#fdb462" stroke="transparent" points="1850,-10 1850,-30 1870,-30 1870,-10 1850,-10"/>
<text text-anchor="start" x="1873.67" y="-15.4" font-family="Times-12" font-size="14.00"> &#160;Providers</text>
<polygon fill="#fb8072" stroke="transparent" points="1946,-10 1946,-30 1966,-30 1966,-10 1946,-10"/>
<text text-anchor="start" x="1969.73" y="-15.4" font-family="Times-12" font-size="14.00"> &#160;Exports</text>
<g id="clust1" class="cluster">
<title>cluster_AppModule</title>
<polygon fill="none" stroke="black" stroke-dasharray="1,5" points="1381,-146 1381,-347 2368,-347 2368,-146 1381,-146"/>
</g>
<g id="clust3" class="cluster">
<title>cluster_AppModule_imports</title>
<polygon fill="none" stroke="black" points="1527,-154 1527,-282 2360,-282 2360,-154 1527,-154"/>
</g>
<g id="clust6" class="cluster">
<title>cluster_AppModule_providers</title>
<polygon fill="none" stroke="black" points="1389,-230 1389,-282 1519,-282 1519,-230 1389,-230"/>
</g>
<g id="clust7" class="cluster">
<title>cluster_AuthModule</title>
<polygon fill="none" stroke="black" stroke-dasharray="1,5" points="8,-70 8,-138 1289,-138 1289,-70 8,-70"/>
</g>
<g id="clust10" class="cluster">
<title>cluster_AuthModule_exports</title>
<polygon fill="none" stroke="black" points="1043,-78 1043,-130 1281,-130 1281,-78 1043,-78"/>
</g>
<g id="clust12" class="cluster">
<title>cluster_AuthModule_providers</title>
<polygon fill="none" stroke="black" points="16,-78 16,-130 1035,-130 1035,-78 16,-78"/>
</g>
<g id="clust13" class="cluster">
<title>cluster_MailModule</title>
<polygon fill="none" stroke="black" stroke-dasharray="1,5" points="2796,-70 2796,-138 2944,-138 2944,-70 2796,-70"/>
</g>
<g id="clust18" class="cluster">
<title>cluster_MailModule_providers</title>
<polygon fill="none" stroke="black" points="2804,-78 2804,-130 2936,-130 2936,-78 2804,-78"/>
</g>
<g id="clust19" class="cluster">
<title>cluster_MetaOptionsModule</title>
<polygon fill="none" stroke="black" stroke-dasharray="1,5" points="2952,-70 2952,-138 3164,-138 3164,-70 2952,-70"/>
</g>
<g id="clust24" class="cluster">
<title>cluster_MetaOptionsModule_providers</title>
<polygon fill="none" stroke="black" points="2960,-78 2960,-130 3156,-130 3156,-78 2960,-78"/>
</g>
<g id="clust25" class="cluster">
<title>cluster_PaginationModule</title>
<polygon fill="none" stroke="black" stroke-dasharray="1,5" points="2376,-222 2376,-290 2732,-290 2732,-222 2376,-222"/>
</g>
<g id="clust28" class="cluster">
<title>cluster_PaginationModule_exports</title>
<polygon fill="none" stroke="black" points="2580,-230 2580,-282 2724,-282 2724,-230 2580,-230"/>
</g>
<g id="clust30" class="cluster">
<title>cluster_PaginationModule_providers</title>
<polygon fill="none" stroke="black" points="2384,-230 2384,-282 2572,-282 2572,-230 2384,-230"/>
</g>
<g id="clust31" class="cluster">
<title>cluster_PostModule</title>
<polygon fill="none" stroke="black" stroke-dasharray="1,5" points="1037,-146 1037,-214 1373,-214 1373,-146 1037,-146"/>
</g>
<g id="clust36" class="cluster">
<title>cluster_PostModule_providers</title>
<polygon fill="none" stroke="black" points="1045,-154 1045,-206 1365,-206 1365,-154 1045,-154"/>
</g>
<g id="clust37" class="cluster">
<title>cluster_TagsModule</title>
<polygon fill="none" stroke="black" stroke-dasharray="1,5" points="2740,-222 2740,-290 3002,-290 3002,-222 2740,-222"/>
</g>
<g id="clust40" class="cluster">
<title>cluster_TagsModule_exports</title>
<polygon fill="none" stroke="black" points="2890,-230 2890,-282 2994,-282 2994,-230 2890,-230"/>
</g>
<g id="clust42" class="cluster">
<title>cluster_TagsModule_providers</title>
<polygon fill="none" stroke="black" points="2748,-230 2748,-282 2882,-282 2882,-230 2748,-230"/>
</g>
<g id="clust43" class="cluster">
<title>cluster_UploadsModule</title>
<polygon fill="none" stroke="black" stroke-dasharray="1,5" points="3172,-70 3172,-138 3568,-138 3568,-70 3172,-70"/>
</g>
<g id="clust48" class="cluster">
<title>cluster_UploadsModule_providers</title>
<polygon fill="none" stroke="black" points="3180,-78 3180,-130 3560,-130 3560,-78 3180,-78"/>
</g>
<g id="clust49" class="cluster">
<title>cluster_UsersModule</title>
<polygon fill="none" stroke="black" stroke-dasharray="1,5" points="1297,-70 1297,-138 2788,-138 2788,-70 1297,-70"/>
</g>
<g id="clust52" class="cluster">
<title>cluster_UsersModule_exports</title>
<polygon fill="none" stroke="black" points="2676,-78 2676,-130 2780,-130 2780,-78 2676,-78"/>
</g>
<g id="clust54" class="cluster">
<title>cluster_UsersModule_providers</title>
<polygon fill="none" stroke="black" points="1305,-78 1305,-130 2668,-130 2668,-78 1305,-78"/>
</g>
<!-- AuthModule -->
<g id="node1" class="node">
<title>AuthModule</title>
<polygon fill="#8dd3c7" stroke="black" points="1622.55,-198 1619.55,-202 1598.55,-202 1595.55,-198 1535.45,-198 1535.45,-162 1622.55,-162 1622.55,-198"/>
<text text-anchor="middle" x="1579" y="-175.8" font-family="Times,serif" font-size="14.00">AuthModule</text>
</g>
<!-- AppModule -->
<g id="node9" class="node">
<title>AppModule</title>
<polygon fill="#8dd3c7" stroke="black" points="1934.66,-339 1931.66,-343 1910.66,-343 1907.66,-339 1851.34,-339 1851.34,-303 1934.66,-303 1934.66,-339"/>
<text text-anchor="middle" x="1893" y="-316.8" font-family="Times,serif" font-size="14.00">AppModule</text>
</g>
<!-- AuthModule&#45;&gt;AppModule -->
<g id="edge1" class="edge">
<title>AuthModule&#45;&gt;AppModule</title>
<path fill="none" stroke="black" d="M1579,-198.03C1579,-237.28 1579,-327 1579,-327 1579,-327 1841.3,-327 1841.3,-327"/>
<polygon fill="black" stroke="black" points="1841.3,-330.5 1851.3,-327 1841.3,-323.5 1841.3,-330.5"/>
</g>
<!-- AuthService  -->
<g id="node11" class="node">
<title>AuthService </title>
<polygon fill="#fb8072" stroke="black" points="1272.98,-122 1183.02,-122 1183.02,-86 1272.98,-86 1272.98,-122"/>
<text text-anchor="middle" x="1228" y="-99.8" font-family="Times,serif" font-size="14.00">AuthService </text>
</g>
<!-- AuthModule&#45;&gt;AuthService  -->
<g id="edge11" class="edge">
<title>AuthModule&#45;&gt;AuthService </title>
<path fill="none" stroke="black" stroke-dasharray="5,2" d="M1611.83,-161.81C1611.83,-153.72 1611.83,-146 1611.83,-146 1611.83,-146 1228.81,-146 1228.81,-146 1228.81,-146 1228.81,-132.06 1228.81,-132.06"/>
<polygon fill="black" stroke="black" points="1232.31,-132.06 1228.81,-122.06 1225.31,-132.06 1232.31,-132.06"/>
</g>
<!-- HashingProvider  -->
<g id="node12" class="node">
<title>HashingProvider </title>
<polygon fill="#fb8072" stroke="black" points="1165.37,-122 1050.63,-122 1050.63,-86 1165.37,-86 1165.37,-122"/>
<text text-anchor="middle" x="1108" y="-99.8" font-family="Times,serif" font-size="14.00">HashingProvider </text>
</g>
<!-- AuthModule&#45;&gt;HashingProvider  -->
<g id="edge12" class="edge">
<title>AuthModule&#45;&gt;HashingProvider </title>
<path fill="none" stroke="black" stroke-dasharray="5,2" d="M1600.89,-161.76C1600.89,-154.57 1600.89,-148 1600.89,-148 1600.89,-148 1109.28,-148 1109.28,-148 1109.28,-148 1109.28,-132.15 1109.28,-132.15"/>
<polygon fill="black" stroke="black" points="1112.78,-132.15 1109.28,-122.15 1105.78,-132.15 1112.78,-132.15"/>
</g>
<!-- MailModule -->
<g id="node2" class="node">
<title>MailModule</title>
<polygon fill="#8dd3c7" stroke="black" points="1835.99,-198 1832.99,-202 1811.99,-202 1808.99,-198 1750.01,-198 1750.01,-162 1835.99,-162 1835.99,-198"/>
<text text-anchor="middle" x="1793" y="-175.8" font-family="Times,serif" font-size="14.00">MailModule</text>
</g>
<!-- MailModule&#45;&gt;AppModule -->
<g id="edge2" class="edge">
<title>MailModule&#45;&gt;AppModule</title>
<path fill="none" stroke="black" d="M1793,-198.21C1793,-233.77 1793,-309 1793,-309 1793,-309 1841.17,-309 1841.17,-309"/>
<polygon fill="black" stroke="black" points="1841.17,-312.5 1851.17,-309 1841.17,-305.5 1841.17,-312.5"/>
</g>
<!-- MetaOptionsModule -->
<g id="node3" class="node">
<title>MetaOptionsModule</title>
<polygon fill="#8dd3c7" stroke="black" points="1986.15,-198 1983.15,-202 1962.15,-202 1959.15,-198 1853.85,-198 1853.85,-162 1986.15,-162 1986.15,-198"/>
<text text-anchor="middle" x="1920" y="-175.8" font-family="Times,serif" font-size="14.00">MetaOptionsModule</text>
</g>
<!-- MetaOptionsModule&#45;&gt;AppModule -->
<g id="edge3" class="edge">
<title>MetaOptionsModule&#45;&gt;AppModule</title>
<path fill="none" stroke="black" d="M1894.25,-198.14C1894.25,-198.14 1894.25,-292.93 1894.25,-292.93"/>
<polygon fill="black" stroke="black" points="1890.75,-292.92 1894.25,-302.93 1897.75,-292.93 1890.75,-292.92"/>
</g>
<!-- PaginationModule -->
<g id="node4" class="node">
<title>PaginationModule</title>
<polygon fill="#8dd3c7" stroke="black" points="2247.93,-198 2244.93,-202 2223.93,-202 2220.93,-198 2128.07,-198 2128.07,-162 2247.93,-162 2247.93,-198"/>
<text text-anchor="middle" x="2188" y="-175.8" font-family="Times,serif" font-size="14.00">PaginationModule</text>
</g>
<!-- PostModule -->
<g id="node5" class="node">
<title>PostModule</title>
<polygon fill="#8dd3c7" stroke="black" points="1741.67,-274 1738.67,-278 1717.67,-278 1714.67,-274 1658.33,-274 1658.33,-238 1741.67,-238 1741.67,-274"/>
<text text-anchor="middle" x="1700" y="-251.8" font-family="Times,serif" font-size="14.00">PostModule</text>
</g>
<!-- PaginationModule&#45;&gt;PostModule -->
<g id="edge22" class="edge">
<title>PaginationModule&#45;&gt;PostModule</title>
<path fill="none" stroke="black" d="M2152.17,-198.31C2152.17,-218.15 2152.17,-247 2152.17,-247 2152.17,-247 1751.73,-247 1751.73,-247"/>
<polygon fill="black" stroke="black" points="1751.73,-243.5 1741.73,-247 1751.73,-250.5 1751.73,-243.5"/>
</g>
<!-- PaginationModule&#45;&gt;AppModule -->
<g id="edge4" class="edge">
<title>PaginationModule&#45;&gt;AppModule</title>
<path fill="none" stroke="black" d="M2199.94,-198.04C2199.94,-235.45 2199.94,-318 2199.94,-318 2199.94,-318 1944.72,-318 1944.72,-318"/>
<polygon fill="black" stroke="black" points="1944.72,-314.5 1934.72,-318 1944.72,-321.5 1944.72,-314.5"/>
</g>
<!-- PaginationProvider  -->
<g id="node20" class="node">
<title>PaginationProvider </title>
<polygon fill="#fb8072" stroke="black" points="2715.59,-274 2588.41,-274 2588.41,-238 2715.59,-238 2715.59,-274"/>
<text text-anchor="middle" x="2652" y="-251.8" font-family="Times,serif" font-size="14.00">PaginationProvider </text>
</g>
<!-- PaginationModule&#45;&gt;PaginationProvider  -->
<g id="edge20" class="edge">
<title>PaginationModule&#45;&gt;PaginationProvider </title>
<path fill="none" stroke="black" stroke-dasharray="5,2" d="M2176.06,-198.04C2176.06,-210.56 2176.06,-225 2176.06,-225 2176.06,-225 2624.17,-225 2624.17,-225 2624.17,-225 2624.17,-227.97 2624.17,-227.97"/>
<polygon fill="black" stroke="black" points="2620.67,-227.97 2624.17,-237.97 2627.67,-227.97 2620.67,-227.97"/>
</g>
<!-- PostModule&#45;&gt;AppModule -->
<g id="edge5" class="edge">
<title>PostModule&#45;&gt;AppModule</title>
<path fill="none" stroke="black" d="M1700,-274.02C1700,-291.37 1700,-315 1700,-315 1700,-315 1841.12,-315 1841.12,-315"/>
<polygon fill="black" stroke="black" points="1841.12,-318.5 1851.12,-315 1841.12,-311.5 1841.12,-318.5"/>
</g>
<!-- TagsModule -->
<g id="node6" class="node">
<title>TagsModule</title>
<polygon fill="#8dd3c7" stroke="black" points="2352.26,-198 2349.26,-202 2328.26,-202 2325.26,-198 2265.74,-198 2265.74,-162 2352.26,-162 2352.26,-198"/>
<text text-anchor="middle" x="2309" y="-175.8" font-family="Times,serif" font-size="14.00">TagsModule</text>
</g>
<!-- TagsModule&#45;&gt;PostModule -->
<g id="edge23" class="edge">
<title>TagsModule&#45;&gt;PostModule</title>
<path fill="none" stroke="black" d="M2287.31,-198.01C2287.31,-220.49 2287.31,-256 2287.31,-256 2287.31,-256 1751.77,-256 1751.77,-256"/>
<polygon fill="black" stroke="black" points="1751.77,-252.5 1741.77,-256 1751.77,-259.5 1751.77,-252.5"/>
</g>
<!-- TagsModule&#45;&gt;AppModule -->
<g id="edge6" class="edge">
<title>TagsModule&#45;&gt;AppModule</title>
<path fill="none" stroke="black" d="M2309,-198.07C2309,-236.94 2309,-325 2309,-325 2309,-325 1944.79,-325 1944.79,-325"/>
<polygon fill="black" stroke="black" points="1944.79,-321.5 1934.79,-325 1944.79,-328.5 1944.79,-321.5"/>
</g>
<!-- TagsModule&#45;&gt;AppModule -->
<g id="edge7" class="edge">
<title>TagsModule&#45;&gt;AppModule</title>
<path fill="none" stroke="black" d="M2330.69,-198.03C2330.69,-238.3 2330.69,-332 2330.69,-332 2330.69,-332 1944.97,-332 1944.97,-332"/>
<polygon fill="black" stroke="black" points="1944.97,-328.5 1934.97,-332 1944.97,-335.5 1944.97,-328.5"/>
</g>
<!-- TagsService  -->
<g id="node24" class="node">
<title>TagsService </title>
<polygon fill="#fb8072" stroke="black" points="2986.19,-274 2897.81,-274 2897.81,-238 2986.19,-238 2986.19,-274"/>
<text text-anchor="middle" x="2942" y="-251.8" font-family="Times,serif" font-size="14.00">TagsService </text>
</g>
<!-- TagsModule&#45;&gt;TagsService  -->
<g id="edge27" class="edge">
<title>TagsModule&#45;&gt;TagsService </title>
<path fill="none" stroke="black" stroke-dasharray="5,2" d="M2352.43,-174C2490.91,-174 2912.94,-174 2912.94,-174 2912.94,-174 2912.94,-227.8 2912.94,-227.8"/>
<polygon fill="black" stroke="black" points="2909.44,-227.8 2912.94,-237.8 2916.44,-227.8 2909.44,-227.8"/>
</g>
<!-- UploadsModule -->
<g id="node7" class="node">
<title>UploadsModule</title>
<polygon fill="#8dd3c7" stroke="black" points="2110.21,-198 2107.21,-202 2086.21,-202 2083.21,-198 2003.79,-198 2003.79,-162 2110.21,-162 2110.21,-198"/>
<text text-anchor="middle" x="2057" y="-175.8" font-family="Times,serif" font-size="14.00">UploadsModule</text>
</g>
<!-- UploadsModule&#45;&gt;AppModule -->
<g id="edge8" class="edge">
<title>UploadsModule&#45;&gt;AppModule</title>
<path fill="none" stroke="black" d="M2057,-198.21C2057,-234.21 2057,-311 2057,-311 2057,-311 1944.81,-311 1944.81,-311"/>
<polygon fill="black" stroke="black" points="1944.81,-307.5 1934.81,-311 1944.81,-314.5 1944.81,-307.5"/>
</g>
<!-- UsersModule -->
<g id="node8" class="node">
<title>UsersModule</title>
<polygon fill="#8dd3c7" stroke="black" points="1731.92,-198 1728.92,-202 1707.92,-202 1704.92,-198 1640.08,-198 1640.08,-162 1731.92,-162 1731.92,-198"/>
<text text-anchor="middle" x="1686" y="-175.8" font-family="Times,serif" font-size="14.00">UsersModule</text>
</g>
<!-- UsersModule&#45;&gt;PostModule -->
<g id="edge24" class="edge">
<title>UsersModule&#45;&gt;PostModule</title>
<path fill="none" stroke="black" d="M1707.2,-198.01C1707.2,-198.01 1707.2,-227.85 1707.2,-227.85"/>
<polygon fill="black" stroke="black" points="1703.7,-227.85 1707.2,-237.85 1710.7,-227.85 1703.7,-227.85"/>
</g>
<!-- UsersModule&#45;&gt;AppModule -->
<g id="edge9" class="edge">
<title>UsersModule&#45;&gt;AppModule</title>
<path fill="none" stroke="black" d="M1649.23,-198.14C1649.23,-236.23 1649.23,-321 1649.23,-321 1649.23,-321 1841.09,-321 1841.09,-321"/>
<polygon fill="black" stroke="black" points="1841.09,-324.5 1851.09,-321 1841.09,-317.5 1841.09,-324.5"/>
</g>
<!-- UserService  -->
<g id="node28" class="node">
<title>UserService </title>
<polygon fill="#fb8072" stroke="black" points="2771.9,-122 2684.1,-122 2684.1,-86 2771.9,-86 2771.9,-122"/>
<text text-anchor="middle" x="2728" y="-99.8" font-family="Times,serif" font-size="14.00">UserService </text>
</g>
<!-- UsersModule&#45;&gt;UserService  -->
<g id="edge31" class="edge">
<title>UsersModule&#45;&gt;UserService </title>
<path fill="none" stroke="black" stroke-dasharray="5,2" d="M1700.8,-161.85C1700.8,-148.26 1700.8,-132 1700.8,-132 1700.8,-132 2699.92,-132 2699.92,-132 2699.92,-132 2699.92,-131.02 2699.92,-131.02"/>
<polygon fill="black" stroke="black" points="2703.42,-132.21 2699.92,-122.21 2696.42,-132.21 2703.42,-132.21"/>
</g>
<!-- AppService -->
<g id="node10" class="node">
<title>AppService</title>
<ellipse fill="#fdb462" stroke="black" cx="1454" cy="-256" rx="56.74" ry="18"/>
<text text-anchor="middle" x="1454" y="-251.8" font-family="Times,serif" font-size="14.00">AppService</text>
</g>
<!-- AppService&#45;&gt;AppModule -->
<g id="edge10" class="edge">
<title>AppService&#45;&gt;AppModule</title>
<path fill="none" stroke="black" d="M1454,-274.09C1454,-297.13 1454,-334 1454,-334 1454,-334 1841.3,-334 1841.3,-334"/>
<polygon fill="black" stroke="black" points="1841.3,-337.5 1851.3,-334 1841.3,-330.5 1841.3,-337.5"/>
</g>
<!-- AuthService -->
<g id="node13" class="node">
<title>AuthService</title>
<ellipse fill="#fdb462" stroke="black" cx="810" cy="-104" rx="59.11" ry="18"/>
<text text-anchor="middle" x="810" y="-99.8" font-family="Times,serif" font-size="14.00">AuthService</text>
</g>
<!-- AuthService&#45;&gt;AuthModule -->
<g id="edge13" class="edge">
<title>AuthService&#45;&gt;AuthModule</title>
<path fill="none" stroke="black" d="M810,-122.25C810,-136.18 810,-153 810,-153 810,-153 1579,-153 1579,-153 1579,-153 1579,-153.88 1579,-153.88"/>
<polygon fill="black" stroke="black" points="1575.5,-151.84 1579,-161.84 1582.5,-151.84 1575.5,-151.84"/>
</g>
<!-- GenerateTokensProvider -->
<g id="node14" class="node">
<title>GenerateTokensProvider</title>
<ellipse fill="#fdb462" stroke="black" cx="625" cy="-104" rx="107.63" ry="18"/>
<text text-anchor="middle" x="625" y="-99.8" font-family="Times,serif" font-size="14.00">GenerateTokensProvider</text>
</g>
<!-- GenerateTokensProvider&#45;&gt;AuthModule -->
<g id="edge14" class="edge">
<title>GenerateTokensProvider&#45;&gt;AuthModule</title>
<path fill="none" stroke="black" d="M625,-122.12C625,-136.78 625,-155 625,-155 625,-155 1568.06,-155 1568.06,-155 1568.06,-155 1568.06,-155.68 1568.06,-155.68"/>
<polygon fill="black" stroke="black" points="1564.56,-151.83 1568.06,-161.83 1571.56,-151.83 1564.56,-151.83"/>
</g>
<!-- GoogleAuthenticationService -->
<g id="node15" class="node">
<title>GoogleAuthenticationService</title>
<ellipse fill="#fdb462" stroke="black" cx="374" cy="-104" rx="125.62" ry="18"/>
<text text-anchor="middle" x="374" y="-99.8" font-family="Times,serif" font-size="14.00">GoogleAuthenticationService</text>
</g>
<!-- GoogleAuthenticationService&#45;&gt;AuthModule -->
<g id="edge15" class="edge">
<title>GoogleAuthenticationService&#45;&gt;AuthModule</title>
<path fill="none" stroke="black" d="M374,-122.28C374,-137.95 374,-158 374,-158 374,-158 1557.11,-158 1557.11,-158 1557.11,-158 1557.11,-158.38 1557.11,-158.38"/>
<polygon fill="black" stroke="black" points="1553.61,-151.83 1557.11,-161.83 1560.61,-151.83 1553.61,-151.83"/>
</g>
<!-- RefreshTokensProvider -->
<g id="node16" class="node">
<title>RefreshTokensProvider</title>
<ellipse fill="#fdb462" stroke="black" cx="127" cy="-104" rx="102.99" ry="18"/>
<text text-anchor="middle" x="127" y="-99.8" font-family="Times,serif" font-size="14.00">RefreshTokensProvider</text>
</g>
<!-- RefreshTokensProvider&#45;&gt;AuthModule -->
<g id="edge16" class="edge">
<title>RefreshTokensProvider&#45;&gt;AuthModule</title>
<path fill="none" stroke="black" d="M127,-122.03C127,-138.4 127,-160 127,-160 127,-160 1546.17,-160 1546.17,-160 1546.17,-160 1546.17,-160.18 1546.17,-160.18"/>
<polygon fill="black" stroke="black" points="1542.67,-151.85 1546.17,-161.85 1549.67,-151.85 1542.67,-151.85"/>
</g>
<!-- SignInProvider -->
<g id="node17" class="node">
<title>SignInProvider</title>
<ellipse fill="#fdb462" stroke="black" cx="957" cy="-104" rx="70.08" ry="18"/>
<text text-anchor="middle" x="957" y="-99.8" font-family="Times,serif" font-size="14.00">SignInProvider</text>
</g>
<!-- SignInProvider&#45;&gt;AuthModule -->
<g id="edge17" class="edge">
<title>SignInProvider&#45;&gt;AuthModule</title>
<path fill="none" stroke="black" d="M957,-122.04C957,-135.29 957,-151 957,-151 957,-151 1589.94,-151 1589.94,-151 1589.94,-151 1589.94,-152.08 1589.94,-152.08"/>
<polygon fill="black" stroke="black" points="1586.44,-151.8 1589.94,-161.8 1593.44,-151.8 1586.44,-151.8"/>
</g>
<!-- MailService -->
<g id="node18" class="node">
<title>MailService</title>
<ellipse fill="#fdb462" stroke="black" cx="2870" cy="-104" rx="58.46" ry="18"/>
<text text-anchor="middle" x="2870" y="-99.8" font-family="Times,serif" font-size="14.00">MailService</text>
</g>
<!-- MailService&#45;&gt;MailModule -->
<g id="edge18" class="edge">
<title>MailService&#45;&gt;MailModule</title>
<path fill="none" stroke="black" d="M2842.77,-120.05C2842.77,-127.19 2842.77,-134 2842.77,-134 2842.77,-134 1793,-134 1793,-134 1793,-134 1793,-151.82 1793,-151.82"/>
<polygon fill="black" stroke="black" points="1789.5,-151.82 1793,-161.82 1796.5,-151.82 1789.5,-151.82"/>
</g>
<!-- MetaOptionsService -->
<g id="node19" class="node">
<title>MetaOptionsService</title>
<ellipse fill="#fdb462" stroke="black" cx="3058" cy="-104" rx="90.33" ry="18"/>
<text text-anchor="middle" x="3058" y="-99.8" font-family="Times,serif" font-size="14.00">MetaOptionsService</text>
</g>
<!-- MetaOptionsService&#45;&gt;MetaOptionsModule -->
<g id="edge19" class="edge">
<title>MetaOptionsService&#45;&gt;MetaOptionsModule</title>
<path fill="none" stroke="black" d="M2976.97,-111.99C2976.97,-121.75 2976.97,-137 2976.97,-137 2976.97,-137 1978.94,-137 1978.94,-137 1978.94,-137 1978.94,-151.51 1978.94,-151.51"/>
<polygon fill="black" stroke="black" points="1975.44,-151.51 1978.94,-161.51 1982.44,-151.51 1975.44,-151.51"/>
</g>
<!-- PaginationProvider -->
<g id="node21" class="node">
<title>PaginationProvider</title>
<ellipse fill="#fdb462" stroke="black" cx="2478" cy="-256" rx="85.69" ry="18"/>
<text text-anchor="middle" x="2478" y="-251.8" font-family="Times,serif" font-size="14.00">PaginationProvider</text>
</g>
<!-- PaginationProvider&#45;&gt;PaginationModule -->
<g id="edge21" class="edge">
<title>PaginationProvider&#45;&gt;PaginationModule</title>
<path fill="none" stroke="black" d="M2403.8,-265C2328.78,-265 2223.83,-265 2223.83,-265 2223.83,-265 2223.83,-208.03 2223.83,-208.03"/>
<polygon fill="black" stroke="black" points="2227.33,-208.03 2223.83,-198.03 2220.33,-208.03 2227.33,-208.03"/>
</g>
<!-- CreatePostProvider -->
<g id="node22" class="node">
<title>CreatePostProvider</title>
<ellipse fill="#fdb462" stroke="black" cx="1271" cy="-180" rx="86.25" ry="18"/>
<text text-anchor="middle" x="1271" y="-175.8" font-family="Times,serif" font-size="14.00">CreatePostProvider</text>
</g>
<!-- CreatePostProvider&#45;&gt;PostModule -->
<g id="edge25" class="edge">
<title>CreatePostProvider&#45;&gt;PostModule</title>
<path fill="none" stroke="black" d="M1357.35,-180C1430.27,-180 1522.92,-180 1522.92,-180 1522.92,-180 1522.92,-256 1522.92,-256 1522.92,-256 1648.04,-256 1648.04,-256"/>
<polygon fill="black" stroke="black" points="1648.04,-259.5 1658.04,-256 1648.04,-252.5 1648.04,-259.5"/>
</g>
<!-- PostService -->
<g id="node23" class="node">
<title>PostService</title>
<ellipse fill="#fdb462" stroke="black" cx="1110" cy="-180" rx="56.76" ry="18"/>
<text text-anchor="middle" x="1110" y="-175.8" font-family="Times,serif" font-size="14.00">PostService</text>
</g>
<!-- PostService&#45;&gt;PostModule -->
<g id="edge26" class="edge">
<title>PostService&#45;&gt;PostModule</title>
<path fill="none" stroke="black" d="M1110,-198.24C1110,-205.43 1110,-212 1110,-212 1110,-212 1682.68,-212 1682.68,-212 1682.68,-212 1682.68,-227.85 1682.68,-227.85"/>
<polygon fill="black" stroke="black" points="1679.18,-227.85 1682.68,-237.85 1686.18,-227.85 1679.18,-227.85"/>
</g>
<!-- TagsService -->
<g id="node25" class="node">
<title>TagsService</title>
<ellipse fill="#fdb462" stroke="black" cx="2815" cy="-256" rx="58.53" ry="18"/>
<text text-anchor="middle" x="2815" y="-251.8" font-family="Times,serif" font-size="14.00">TagsService</text>
</g>
<!-- TagsService&#45;&gt;TagsModule -->
<g id="edge28" class="edge">
<title>TagsService&#45;&gt;TagsModule</title>
<path fill="none" stroke="black" d="M2764.09,-246.85C2764.09,-227.87 2764.09,-186 2764.09,-186 2764.09,-186 2362.64,-186 2362.64,-186"/>
<polygon fill="black" stroke="black" points="2362.64,-182.5 2352.64,-186 2362.64,-189.5 2362.64,-182.5"/>
</g>
<!-- UploadToAwsProvider -->
<g id="node26" class="node">
<title>UploadToAwsProvider</title>
<ellipse fill="#fdb462" stroke="black" cx="3451" cy="-104" rx="101.29" ry="18"/>
<text text-anchor="middle" x="3451" y="-99.8" font-family="Times,serif" font-size="14.00">UploadToAwsProvider</text>
</g>
<!-- UploadToAwsProvider&#45;&gt;UploadsModule -->
<g id="edge29" class="edge">
<title>UploadToAwsProvider&#45;&gt;UploadsModule</title>
<path fill="none" stroke="black" d="M3451,-122.07C3451,-131.46 3451,-141 3451,-141 3451,-141 2074.7,-141 2074.7,-141 2074.7,-141 2074.7,-151.87 2074.7,-151.87"/>
<polygon fill="black" stroke="black" points="2071.2,-151.87 2074.7,-161.87 2078.2,-151.87 2071.2,-151.87"/>
</g>
<!-- UploadsService -->
<g id="node27" class="node">
<title>UploadsService</title>
<ellipse fill="#fdb462" stroke="black" cx="3260" cy="-104" rx="72.35" ry="18"/>
<text text-anchor="middle" x="3260" y="-99.8" font-family="Times,serif" font-size="14.00">UploadsService</text>
</g>
<!-- UploadsService&#45;&gt;UploadsModule -->
<g id="edge30" class="edge">
<title>UploadsService&#45;&gt;UploadsModule</title>
<path fill="none" stroke="black" d="M3260,-122.32C3260,-130.79 3260,-139 3260,-139 3260,-139 2039.3,-139 2039.3,-139 2039.3,-139 2039.3,-151.9 2039.3,-151.9"/>
<polygon fill="black" stroke="black" points="2035.8,-151.9 2039.3,-161.9 2042.8,-151.9 2035.8,-151.9"/>
</g>
<!-- CreateGoogleUserProvider -->
<g id="node29" class="node">
<title>CreateGoogleUserProvider</title>
<ellipse fill="#fdb462" stroke="black" cx="2544" cy="-104" rx="116.29" ry="18"/>
<text text-anchor="middle" x="2544" y="-99.8" font-family="Times,serif" font-size="14.00">CreateGoogleUserProvider</text>
</g>
<!-- CreateGoogleUserProvider&#45;&gt;UsersModule -->
<g id="edge32" class="edge">
<title>CreateGoogleUserProvider&#45;&gt;UsersModule</title>
<path fill="none" stroke="black" d="M2495.73,-120.61C2495.73,-125.71 2495.73,-130 2495.73,-130 2495.73,-130 1723.98,-130 1723.98,-130 1723.98,-130 1723.98,-151.95 1723.98,-151.95"/>
<polygon fill="black" stroke="black" points="1720.48,-151.95 1723.98,-161.95 1727.48,-151.95 1720.48,-151.95"/>
</g>
<!-- CreateUserProvider -->
<g id="node30" class="node">
<title>CreateUserProvider</title>
<ellipse fill="#fdb462" stroke="black" cx="2322" cy="-104" rx="87.94" ry="18"/>
<text text-anchor="middle" x="2322" y="-99.8" font-family="Times,serif" font-size="14.00">CreateUserProvider</text>
</g>
<!-- CreateUserProvider&#45;&gt;UsersModule -->
<g id="edge33" class="edge">
<title>CreateUserProvider&#45;&gt;UsersModule</title>
<path fill="none" stroke="black" d="M2241,-111.28C2241,-118.02 2241,-127 2241,-127 2241,-127 1716.26,-127 1716.26,-127 1716.26,-127 1716.26,-151.76 1716.26,-151.76"/>
<polygon fill="black" stroke="black" points="1712.76,-151.76 1716.26,-161.76 1719.76,-151.76 1712.76,-151.76"/>
</g>
<!-- FindOneByGoogleIdProvider -->
<g id="node31" class="node">
<title>FindOneByGoogleIdProvider</title>
<ellipse fill="#fdb462" stroke="black" cx="2090" cy="-104" rx="125.65" ry="18"/>
<text text-anchor="middle" x="2090" y="-99.8" font-family="Times,serif" font-size="14.00">FindOneByGoogleIdProvider</text>
</g>
<!-- FindOneByGoogleIdProvider&#45;&gt;UsersModule -->
<g id="edge34" class="edge">
<title>FindOneByGoogleIdProvider&#45;&gt;UsersModule</title>
<path fill="none" stroke="black" d="M1971.56,-110.19C1971.56,-116.38 1971.56,-125 1971.56,-125 1971.56,-125 1708.53,-125 1708.53,-125 1708.53,-125 1708.53,-151.99 1708.53,-151.99"/>
<polygon fill="black" stroke="black" points="1705.03,-151.99 1708.53,-161.99 1712.03,-151.99 1705.03,-151.99"/>
</g>
<!-- FindOneUserByEmailProvider -->
<g id="node32" class="node">
<title>FindOneUserByEmailProvider</title>
<ellipse fill="#fdb462" stroke="black" cx="1816" cy="-104" rx="130.8" ry="18"/>
<text text-anchor="middle" x="1816" y="-99.8" font-family="Times,serif" font-size="14.00">FindOneUserByEmailProvider</text>
</g>
<!-- FindOneUserByEmailProvider&#45;&gt;UsersModule -->
<g id="edge35" class="edge">
<title>FindOneUserByEmailProvider&#45;&gt;UsersModule</title>
<path fill="none" stroke="black" d="M1693.08,-110.22C1693.08,-110.22 1693.08,-151.76 1693.08,-151.76"/>
<polygon fill="black" stroke="black" points="1689.58,-151.76 1693.08,-161.76 1696.58,-151.76 1689.58,-151.76"/>
</g>
<!-- UserCreateManyProvider -->
<g id="node33" class="node">
<title>UserCreateManyProvider</title>
<ellipse fill="#fdb462" stroke="black" cx="1557" cy="-104" rx="110.49" ry="18"/>
<text text-anchor="middle" x="1557" y="-99.8" font-family="Times,serif" font-size="14.00">UserCreateManyProvider</text>
</g>
<!-- UserCreateManyProvider&#45;&gt;UsersModule -->
<g id="edge36" class="edge">
<title>UserCreateManyProvider&#45;&gt;UsersModule</title>
<path fill="none" stroke="black" d="M1658.26,-111.29C1658.26,-111.29 1658.26,-151.73 1658.26,-151.73"/>
<polygon fill="black" stroke="black" points="1654.76,-151.73 1658.26,-161.73 1661.76,-151.73 1654.76,-151.73"/>
</g>
<!-- UserService -->
<g id="node34" class="node">
<title>UserService</title>
<ellipse fill="#fdb462" stroke="black" cx="1371" cy="-104" rx="58.44" ry="18"/>
<text text-anchor="middle" x="1371" y="-99.8" font-family="Times,serif" font-size="14.00">UserService</text>
</g>
<!-- UserService&#45;&gt;UsersModule -->
<g id="edge37" class="edge">
<title>UserService&#45;&gt;UsersModule</title>
<path fill="none" stroke="black" d="M1413.3,-116.66C1413.3,-128.38 1413.3,-144 1413.3,-144 1413.3,-144 1649.27,-144 1649.27,-144 1649.27,-144 1649.27,-151.58 1649.27,-151.58"/>
<polygon fill="black" stroke="black" points="1645.77,-151.58 1649.27,-161.58 1652.77,-151.58 1645.77,-151.58"/>
</g>
</g>
</svg>
