<?xml version="1.0" encoding="UTF-8" standalone="no"?>
<!DOCTYPE svg PUBLIC "-//W3C//DTD SVG 1.1//EN"
 "http://www.w3.org/Graphics/SVG/1.1/DTD/svg11.dtd">
<!-- Generated by graphviz version 2.47.0 (20210316.0004)
 -->
<!-- Title: dependencies Pages: 1 -->
<svg width="3024pt" height="363pt"
 viewBox="0.00 0.00 3024.00 363.00" xmlns="http://www.w3.org/2000/svg" xmlns:xlink="http://www.w3.org/1999/xlink">
<g id="graph0" class="graph" transform="scale(1 1) rotate(0) translate(4 359)">
<title>dependencies</title>
<polygon fill="white" stroke="transparent" points="-4,4 -4,-359 3020,-359 3020,4 -4,4"/>
<text text-anchor="start" x="1487.01" y="-42.4" font-family="Times-12" font-weight="bold" font-size="14.00">Legend</text>
<polygon fill="#ffffb3" stroke="transparent" points="1274,-10 1274,-30 1294,-30 1294,-10 1274,-10"/>
<text text-anchor="start" x="1297.63" y="-15.4" font-family="Times-12" font-size="14.00"> &#160;Declarations</text>
<polygon fill="#8dd3c7" stroke="transparent" points="1387,-10 1387,-30 1407,-30 1407,-10 1387,-10"/>
<text text-anchor="start" x="1410.73" y="-15.4" font-family="Times-12" font-size="14.00"> &#160;Module</text>
<polygon fill="#80b1d3" stroke="transparent" points="1473,-10 1473,-30 1493,-30 1493,-10 1473,-10"/>
<text text-anchor="start" x="1496.78" y="-15.4" font-family="Times-12" font-size="14.00"> &#160;Bootstrap</text>
<polygon fill="#fdb462" stroke="transparent" points="1570,-10 1570,-30 1590,-30 1590,-10 1570,-10"/>
<text text-anchor="start" x="1593.67" y="-15.4" font-family="Times-12" font-size="14.00"> &#160;Providers</text>
<polygon fill="#fb8072" stroke="transparent" points="1666,-10 1666,-30 1686,-30 1686,-10 1666,-10"/>
<text text-anchor="start" x="1689.73" y="-15.4" font-family="Times-12" font-size="14.00"> &#160;Exports</text>
<g id="clust1" class="cluster">
<title>cluster_AppModule</title>
<polygon fill="none" stroke="black" stroke-dasharray="1,5" points="1066,-146 1066,-347 1825,-347 1825,-146 1066,-146"/>
</g>
<g id="clust3" class="cluster">
<title>cluster_AppModule_imports</title>
<polygon fill="none" stroke="black" points="1212,-154 1212,-282 1817,-282 1817,-154 1212,-154"/>
</g>
<g id="clust6" class="cluster">
<title>cluster_AppModule_providers</title>
<polygon fill="none" stroke="black" points="1074,-230 1074,-282 1204,-282 1204,-230 1074,-230"/>
</g>
<g id="clust7" class="cluster">
<title>cluster_AuthModule</title>
<polygon fill="none" stroke="black" stroke-dasharray="1,5" points="8,-70 8,-138 1289,-138 1289,-70 8,-70"/>
</g>
<g id="clust10" class="cluster">
<title>cluster_AuthModule_exports</title>
<polygon fill="none" stroke="black" points="1043,-78 1043,-130 1281,-130 1281,-78 1043,-78"/>
</g>
<g id="clust12" class="cluster">
<title>cluster_AuthModule_providers</title>
<polygon fill="none" stroke="black" points="16,-78 16,-130 1035,-130 1035,-78 16,-78"/>
</g>
<g id="clust13" class="cluster">
<title>cluster_MetaOptionsModule</title>
<polygon fill="none" stroke="black" stroke-dasharray="1,5" points="2796,-70 2796,-138 3008,-138 3008,-70 2796,-70"/>
</g>
<g id="clust18" class="cluster">
<title>cluster_MetaOptionsModule_providers</title>
<polygon fill="none" stroke="black" points="2804,-78 2804,-130 3000,-130 3000,-78 2804,-78"/>
</g>
<g id="clust19" class="cluster">
<title>cluster_PaginationModule</title>
<polygon fill="none" stroke="black" stroke-dasharray="1,5" points="1833,-222 1833,-290 2189,-290 2189,-222 1833,-222"/>
</g>
<g id="clust22" class="cluster">
<title>cluster_PaginationModule_exports</title>
<polygon fill="none" stroke="black" points="2037,-230 2037,-282 2181,-282 2181,-230 2037,-230"/>
</g>
<g id="clust24" class="cluster">
<title>cluster_PaginationModule_providers</title>
<polygon fill="none" stroke="black" points="1841,-230 1841,-282 2029,-282 2029,-230 1841,-230"/>
</g>
<g id="clust25" class="cluster">
<title>cluster_PostModule</title>
<polygon fill="none" stroke="black" stroke-dasharray="1,5" points="722,-146 722,-214 1058,-214 1058,-146 722,-146"/>
</g>
<g id="clust30" class="cluster">
<title>cluster_PostModule_providers</title>
<polygon fill="none" stroke="black" points="730,-154 730,-206 1050,-206 1050,-154 730,-154"/>
</g>
<g id="clust31" class="cluster">
<title>cluster_TagsModule</title>
<polygon fill="none" stroke="black" stroke-dasharray="1,5" points="2197,-222 2197,-290 2459,-290 2459,-222 2197,-222"/>
</g>
<g id="clust34" class="cluster">
<title>cluster_TagsModule_exports</title>
<polygon fill="none" stroke="black" points="2347,-230 2347,-282 2451,-282 2451,-230 2347,-230"/>
</g>
<g id="clust36" class="cluster">
<title>cluster_TagsModule_providers</title>
<polygon fill="none" stroke="black" points="2205,-230 2205,-282 2339,-282 2339,-230 2205,-230"/>
</g>
<g id="clust37" class="cluster">
<title>cluster_UsersModule</title>
<polygon fill="none" stroke="black" stroke-dasharray="1,5" points="1297,-70 1297,-138 2788,-138 2788,-70 1297,-70"/>
</g>
<g id="clust40" class="cluster">
<title>cluster_UsersModule_exports</title>
<polygon fill="none" stroke="black" points="2676,-78 2676,-130 2780,-130 2780,-78 2676,-78"/>
</g>
<g id="clust42" class="cluster">
<title>cluster_UsersModule_providers</title>
<polygon fill="none" stroke="black" points="1305,-78 1305,-130 2668,-130 2668,-78 1305,-78"/>
</g>
<!-- AuthModule -->
<g id="node1" class="node">
<title>AuthModule</title>
<polygon fill="#8dd3c7" stroke="black" points="1307.55,-198 1304.55,-202 1283.55,-202 1280.55,-198 1220.45,-198 1220.45,-162 1307.55,-162 1307.55,-198"/>
<text text-anchor="middle" x="1264" y="-175.8" font-family="Times,serif" font-size="14.00">AuthModule</text>
</g>
<!-- AppModule -->
<g id="node7" class="node">
<title>AppModule</title>
<polygon fill="#8dd3c7" stroke="black" points="1540.66,-339 1537.66,-343 1516.66,-343 1513.66,-339 1457.34,-339 1457.34,-303 1540.66,-303 1540.66,-339"/>
<text text-anchor="middle" x="1499" y="-316.8" font-family="Times,serif" font-size="14.00">AppModule</text>
</g>
<!-- AuthModule&#45;&gt;AppModule -->
<g id="edge1" class="edge">
<title>AuthModule&#45;&gt;AppModule</title>
<path fill="none" stroke="black" d="M1264,-198.07C1264,-236.94 1264,-325 1264,-325 1264,-325 1447.26,-325 1447.26,-325"/>
<polygon fill="black" stroke="black" points="1447.26,-328.5 1457.26,-325 1447.26,-321.5 1447.26,-328.5"/>
</g>
<!-- AuthService  -->
<g id="node9" class="node">
<title>AuthService </title>
<polygon fill="#fb8072" stroke="black" points="1272.98,-122 1183.02,-122 1183.02,-86 1272.98,-86 1272.98,-122"/>
<text text-anchor="middle" x="1228" y="-99.8" font-family="Times,serif" font-size="14.00">AuthService </text>
</g>
<!-- AuthModule&#45;&gt;AuthService  -->
<g id="edge9" class="edge">
<title>AuthModule&#45;&gt;AuthService </title>
<path fill="none" stroke="black" stroke-dasharray="5,2" d="M1263.99,-161.99C1263.99,-161.99 1263.99,-132.15 1263.99,-132.15"/>
<polygon fill="black" stroke="black" points="1267.49,-132.15 1263.99,-122.15 1260.49,-132.15 1267.49,-132.15"/>
</g>
<!-- HashingProvider  -->
<g id="node10" class="node">
<title>HashingProvider </title>
<polygon fill="#fb8072" stroke="black" points="1165.37,-122 1050.63,-122 1050.63,-86 1165.37,-86 1165.37,-122"/>
<text text-anchor="middle" x="1108" y="-99.8" font-family="Times,serif" font-size="14.00">HashingProvider </text>
</g>
<!-- AuthModule&#45;&gt;HashingProvider  -->
<g id="edge10" class="edge">
<title>AuthModule&#45;&gt;HashingProvider </title>
<path fill="none" stroke="black" stroke-dasharray="5,2" d="M1220.4,-171C1179.24,-171 1123.78,-171 1123.78,-171 1123.78,-171 1123.78,-132.31 1123.78,-132.31"/>
<polygon fill="black" stroke="black" points="1127.28,-132.31 1123.78,-122.31 1120.28,-132.31 1127.28,-132.31"/>
</g>
<!-- MetaOptionsModule -->
<g id="node2" class="node">
<title>MetaOptionsModule</title>
<polygon fill="#8dd3c7" stroke="black" points="1567.15,-198 1564.15,-202 1543.15,-202 1540.15,-198 1434.85,-198 1434.85,-162 1567.15,-162 1567.15,-198"/>
<text text-anchor="middle" x="1501" y="-175.8" font-family="Times,serif" font-size="14.00">MetaOptionsModule</text>
</g>
<!-- MetaOptionsModule&#45;&gt;AppModule -->
<g id="edge2" class="edge">
<title>MetaOptionsModule&#45;&gt;AppModule</title>
<path fill="none" stroke="black" d="M1499,-198.14C1499,-198.14 1499,-292.93 1499,-292.93"/>
<polygon fill="black" stroke="black" points="1495.5,-292.92 1499,-302.93 1502.5,-292.93 1495.5,-292.92"/>
</g>
<!-- PaginationModule -->
<g id="node3" class="node">
<title>PaginationModule</title>
<polygon fill="#8dd3c7" stroke="black" points="1704.93,-198 1701.93,-202 1680.93,-202 1677.93,-198 1585.07,-198 1585.07,-162 1704.93,-162 1704.93,-198"/>
<text text-anchor="middle" x="1645" y="-175.8" font-family="Times,serif" font-size="14.00">PaginationModule</text>
</g>
<!-- PostModule -->
<g id="node4" class="node">
<title>PostModule</title>
<polygon fill="#8dd3c7" stroke="black" points="1414.67,-274 1411.67,-278 1390.67,-278 1387.67,-274 1331.33,-274 1331.33,-238 1414.67,-238 1414.67,-274"/>
<text text-anchor="middle" x="1373" y="-251.8" font-family="Times,serif" font-size="14.00">PostModule</text>
</g>
<!-- PaginationModule&#45;&gt;PostModule -->
<g id="edge19" class="edge">
<title>PaginationModule&#45;&gt;PostModule</title>
<path fill="none" stroke="black" d="M1633.06,-198.01C1633.06,-220.49 1633.06,-256 1633.06,-256 1633.06,-256 1424.78,-256 1424.78,-256"/>
<polygon fill="black" stroke="black" points="1424.78,-252.5 1414.78,-256 1424.78,-259.5 1424.78,-252.5"/>
</g>
<!-- PaginationModule&#45;&gt;AppModule -->
<g id="edge3" class="edge">
<title>PaginationModule&#45;&gt;AppModule</title>
<path fill="none" stroke="black" d="M1656.94,-198.08C1656.94,-234.23 1656.94,-312 1656.94,-312 1656.94,-312 1550.91,-312 1550.91,-312"/>
<polygon fill="black" stroke="black" points="1550.91,-308.5 1540.91,-312 1550.91,-315.5 1550.91,-308.5"/>
</g>
<!-- PaginationProvider  -->
<g id="node17" class="node">
<title>PaginationProvider </title>
<polygon fill="#fb8072" stroke="black" points="2172.59,-274 2045.41,-274 2045.41,-238 2172.59,-238 2172.59,-274"/>
<text text-anchor="middle" x="2109" y="-251.8" font-family="Times,serif" font-size="14.00">PaginationProvider </text>
</g>
<!-- PaginationModule&#45;&gt;PaginationProvider  -->
<g id="edge17" class="edge">
<title>PaginationModule&#45;&gt;PaginationProvider </title>
<path fill="none" stroke="black" stroke-dasharray="5,2" d="M1609.17,-198.04C1609.17,-210.56 1609.17,-225 1609.17,-225 1609.17,-225 2109,-225 2109,-225 2109,-225 2109,-227.97 2109,-227.97"/>
<polygon fill="black" stroke="black" points="2105.5,-227.97 2109,-237.97 2112.5,-227.97 2105.5,-227.97"/>
</g>
<!-- PostModule&#45;&gt;AppModule -->
<g id="edge4" class="edge">
<title>PostModule&#45;&gt;AppModule</title>
<path fill="none" stroke="black" d="M1373,-274.27C1373,-292.56 1373,-318 1373,-318 1373,-318 1447.04,-318 1447.04,-318"/>
<polygon fill="black" stroke="black" points="1447.04,-321.5 1457.04,-318 1447.04,-314.5 1447.04,-321.5"/>
</g>
<!-- TagsModule -->
<g id="node5" class="node">
<title>TagsModule</title>
<polygon fill="#8dd3c7" stroke="black" points="1809.26,-198 1806.26,-202 1785.26,-202 1782.26,-198 1722.74,-198 1722.74,-162 1809.26,-162 1809.26,-198"/>
<text text-anchor="middle" x="1766" y="-175.8" font-family="Times,serif" font-size="14.00">TagsModule</text>
</g>
<!-- TagsModule&#45;&gt;PostModule -->
<g id="edge20" class="edge">
<title>TagsModule&#45;&gt;PostModule</title>
<path fill="none" stroke="black" d="M1744.31,-198.03C1744.31,-222.98 1744.31,-265 1744.31,-265 1744.31,-265 1424.87,-265 1424.87,-265"/>
<polygon fill="black" stroke="black" points="1424.87,-261.5 1414.87,-265 1424.87,-268.5 1424.87,-261.5"/>
</g>
<!-- TagsModule&#45;&gt;AppModule -->
<g id="edge5" class="edge">
<title>TagsModule&#45;&gt;AppModule</title>
<path fill="none" stroke="black" d="M1787.69,-198.09C1787.69,-237.99 1787.69,-330 1787.69,-330 1787.69,-330 1550.67,-330 1550.67,-330"/>
<polygon fill="black" stroke="black" points="1550.67,-326.5 1540.67,-330 1550.67,-333.5 1550.67,-326.5"/>
</g>
<!-- TagsModule&#45;&gt;AppModule -->
<g id="edge6" class="edge">
<title>TagsModule&#45;&gt;AppModule</title>
<path fill="none" stroke="black" d="M1766,-198.14C1766,-236.23 1766,-321 1766,-321 1766,-321 1550.72,-321 1550.72,-321"/>
<polygon fill="black" stroke="black" points="1550.72,-317.5 1540.72,-321 1550.72,-324.5 1550.72,-317.5"/>
</g>
<!-- TagsService  -->
<g id="node21" class="node">
<title>TagsService </title>
<polygon fill="#fb8072" stroke="black" points="2443.19,-274 2354.81,-274 2354.81,-238 2443.19,-238 2443.19,-274"/>
<text text-anchor="middle" x="2399" y="-251.8" font-family="Times,serif" font-size="14.00">TagsService </text>
</g>
<!-- TagsModule&#45;&gt;TagsService  -->
<g id="edge24" class="edge">
<title>TagsModule&#45;&gt;TagsService </title>
<path fill="none" stroke="black" stroke-dasharray="5,2" d="M1809.33,-174C1949.59,-174 2382.19,-174 2382.19,-174 2382.19,-174 2382.19,-227.8 2382.19,-227.8"/>
<polygon fill="black" stroke="black" points="2378.69,-227.8 2382.19,-237.8 2385.69,-227.8 2378.69,-227.8"/>
</g>
<!-- UsersModule -->
<g id="node6" class="node">
<title>UsersModule</title>
<polygon fill="#8dd3c7" stroke="black" points="1416.92,-198 1413.92,-202 1392.92,-202 1389.92,-198 1325.08,-198 1325.08,-162 1416.92,-162 1416.92,-198"/>
<text text-anchor="middle" x="1371" y="-175.8" font-family="Times,serif" font-size="14.00">UsersModule</text>
</g>
<!-- UsersModule&#45;&gt;PostModule -->
<g id="edge21" class="edge">
<title>UsersModule&#45;&gt;PostModule</title>
<path fill="none" stroke="black" d="M1386.94,-198.01C1386.94,-198.01 1386.94,-227.85 1386.94,-227.85"/>
<polygon fill="black" stroke="black" points="1383.44,-227.85 1386.94,-237.85 1390.44,-227.85 1383.44,-227.85"/>
</g>
<!-- UsersModule&#45;&gt;AppModule -->
<g id="edge7" class="edge">
<title>UsersModule&#45;&gt;AppModule</title>
<path fill="none" stroke="black" d="M1417,-180C1420.65,-180 1422.97,-180 1422.97,-180 1422.97,-180 1422.97,-311 1422.97,-311 1422.97,-311 1446.98,-311 1446.98,-311"/>
<polygon fill="black" stroke="black" points="1446.98,-314.5 1456.98,-311 1446.98,-307.5 1446.98,-314.5"/>
</g>
<!-- UserService  -->
<g id="node23" class="node">
<title>UserService </title>
<polygon fill="#fb8072" stroke="black" points="2771.9,-122 2684.1,-122 2684.1,-86 2771.9,-86 2771.9,-122"/>
<text text-anchor="middle" x="2728" y="-99.8" font-family="Times,serif" font-size="14.00">UserService </text>
</g>
<!-- UsersModule&#45;&gt;UserService  -->
<g id="edge26" class="edge">
<title>UsersModule&#45;&gt;UserService </title>
<path fill="none" stroke="black" stroke-dasharray="5,2" d="M1348.14,-161.81C1348.14,-158.46 1348.14,-156 1348.14,-156 1348.14,-156 2728,-156 2728,-156 2728,-156 2728,-132.19 2728,-132.19"/>
<polygon fill="black" stroke="black" points="2731.5,-132.19 2728,-122.19 2724.5,-132.19 2731.5,-132.19"/>
</g>
<!-- AppService -->
<g id="node8" class="node">
<title>AppService</title>
<ellipse fill="#fdb462" stroke="black" cx="1139" cy="-256" rx="56.74" ry="18"/>
<text text-anchor="middle" x="1139" y="-251.8" font-family="Times,serif" font-size="14.00">AppService</text>
</g>
<!-- AppService&#45;&gt;AppModule -->
<g id="edge8" class="edge">
<title>AppService&#45;&gt;AppModule</title>
<path fill="none" stroke="black" d="M1139,-274.01C1139,-296.49 1139,-332 1139,-332 1139,-332 1447,-332 1447,-332"/>
<polygon fill="black" stroke="black" points="1447,-335.5 1457,-332 1447,-328.5 1447,-335.5"/>
</g>
<!-- AuthService -->
<g id="node11" class="node">
<title>AuthService</title>
<ellipse fill="#fdb462" stroke="black" cx="968" cy="-104" rx="59.11" ry="18"/>
<text text-anchor="middle" x="968" y="-99.8" font-family="Times,serif" font-size="14.00">AuthService</text>
</g>
<!-- AuthService&#45;&gt;AuthModule -->
<g id="edge11" class="edge">
<title>AuthService&#45;&gt;AuthModule</title>
<path fill="none" stroke="black" d="M1027.48,-104C1038.42,-104 1046.47,-104 1046.47,-104 1046.47,-104 1046.47,-180 1046.47,-180 1046.47,-180 1210.24,-180 1210.24,-180"/>
<polygon fill="black" stroke="black" points="1210.24,-183.5 1220.24,-180 1210.24,-176.5 1210.24,-183.5"/>
</g>
<!-- GenerateTokensProvider -->
<g id="node12" class="node">
<title>GenerateTokensProvider</title>
<ellipse fill="#fdb462" stroke="black" cx="783" cy="-104" rx="107.63" ry="18"/>
<text text-anchor="middle" x="783" y="-99.8" font-family="Times,serif" font-size="14.00">GenerateTokensProvider</text>
</g>
<!-- GenerateTokensProvider&#45;&gt;AuthModule -->
<g id="edge12" class="edge">
<title>GenerateTokensProvider&#45;&gt;AuthModule</title>
<path fill="none" stroke="black" d="M880.22,-111.94C880.22,-118.24 880.22,-126 880.22,-126 880.22,-126 1255.23,-126 1255.23,-126 1255.23,-126 1255.23,-151.72 1255.23,-151.72"/>
<polygon fill="black" stroke="black" points="1251.73,-151.72 1255.23,-161.72 1258.73,-151.72 1251.73,-151.72"/>
</g>
<!-- GoogleAuthenticationService -->
<g id="node13" class="node">
<title>GoogleAuthenticationService</title>
<ellipse fill="#fdb462" stroke="black" cx="532" cy="-104" rx="125.62" ry="18"/>
<text text-anchor="middle" x="532" y="-99.8" font-family="Times,serif" font-size="14.00">GoogleAuthenticationService</text>
</g>
<!-- GoogleAuthenticationService&#45;&gt;AuthModule -->
<g id="edge13" class="edge">
<title>GoogleAuthenticationService&#45;&gt;AuthModule</title>
<path fill="none" stroke="black" d="M532,-122.17C532,-126.05 532,-129 532,-129 532,-129 1246.48,-129 1246.48,-129 1246.48,-129 1246.48,-151.88 1246.48,-151.88"/>
<polygon fill="black" stroke="black" points="1242.98,-151.88 1246.48,-161.88 1249.98,-151.88 1242.98,-151.88"/>
</g>
<!-- RefreshTokensProvider -->
<g id="node14" class="node">
<title>RefreshTokensProvider</title>
<ellipse fill="#fdb462" stroke="black" cx="285" cy="-104" rx="102.99" ry="18"/>
<text text-anchor="middle" x="285" y="-99.8" font-family="Times,serif" font-size="14.00">RefreshTokensProvider</text>
</g>
<!-- RefreshTokensProvider&#45;&gt;AuthModule -->
<g id="edge14" class="edge">
<title>RefreshTokensProvider&#45;&gt;AuthModule</title>
<path fill="none" stroke="black" d="M285,-122.21C285,-127.55 285,-132 285,-132 285,-132 1237.73,-132 1237.73,-132 1237.73,-132 1237.73,-151.85 1237.73,-151.85"/>
<polygon fill="black" stroke="black" points="1234.23,-151.85 1237.73,-161.85 1241.23,-151.85 1234.23,-151.85"/>
</g>
<!-- SignInProvider -->
<g id="node15" class="node">
<title>SignInProvider</title>
<ellipse fill="#fdb462" stroke="black" cx="94" cy="-104" rx="70.08" ry="18"/>
<text text-anchor="middle" x="94" y="-99.8" font-family="Times,serif" font-size="14.00">SignInProvider</text>
</g>
<!-- SignInProvider&#45;&gt;AuthModule -->
<g id="edge15" class="edge">
<title>SignInProvider&#45;&gt;AuthModule</title>
<path fill="none" stroke="black" d="M94,-122.24C94,-129.43 94,-136 94,-136 94,-136 1228.98,-136 1228.98,-136 1228.98,-136 1228.98,-151.85 1228.98,-151.85"/>
<polygon fill="black" stroke="black" points="1225.48,-151.85 1228.98,-161.85 1232.48,-151.85 1225.48,-151.85"/>
</g>
<!-- MetaOptionsService -->
<g id="node16" class="node">
<title>MetaOptionsService</title>
<ellipse fill="#fdb462" stroke="black" cx="2902" cy="-104" rx="90.33" ry="18"/>
<text text-anchor="middle" x="2902" y="-99.8" font-family="Times,serif" font-size="14.00">MetaOptionsService</text>
</g>
<!-- MetaOptionsService&#45;&gt;MetaOptionsModule -->
<g id="edge16" class="edge">
<title>MetaOptionsService&#45;&gt;MetaOptionsModule</title>
<path fill="none" stroke="black" d="M2902,-122.01C2902,-138.05 2902,-159 2902,-159 2902,-159 1527.13,-159 1527.13,-159 1527.13,-159 1527.13,-159.29 1527.13,-159.29"/>
<polygon fill="black" stroke="black" points="1523.63,-151.92 1527.13,-161.92 1530.63,-151.92 1523.63,-151.92"/>
</g>
<!-- PaginationProvider -->
<g id="node18" class="node">
<title>PaginationProvider</title>
<ellipse fill="#fdb462" stroke="black" cx="1935" cy="-256" rx="85.69" ry="18"/>
<text text-anchor="middle" x="1935" y="-251.8" font-family="Times,serif" font-size="14.00">PaginationProvider</text>
</g>
<!-- PaginationProvider&#45;&gt;PaginationModule -->
<g id="edge18" class="edge">
<title>PaginationProvider&#45;&gt;PaginationModule</title>
<path fill="none" stroke="black" d="M1860.8,-247C1785.78,-247 1680.83,-247 1680.83,-247 1680.83,-247 1680.83,-208.31 1680.83,-208.31"/>
<polygon fill="black" stroke="black" points="1684.33,-208.31 1680.83,-198.31 1677.33,-208.31 1684.33,-208.31"/>
</g>
<!-- CreatePostProvider -->
<g id="node19" class="node">
<title>CreatePostProvider</title>
<ellipse fill="#fdb462" stroke="black" cx="956" cy="-180" rx="86.25" ry="18"/>
<text text-anchor="middle" x="956" y="-175.8" font-family="Times,serif" font-size="14.00">CreatePostProvider</text>
</g>
<!-- CreatePostProvider&#45;&gt;PostModule -->
<g id="edge22" class="edge">
<title>CreatePostProvider&#45;&gt;PostModule</title>
<path fill="none" stroke="black" d="M1030.9,-189C1105.16,-189 1207.92,-189 1207.92,-189 1207.92,-189 1207.92,-256 1207.92,-256 1207.92,-256 1320.92,-256 1320.92,-256"/>
<polygon fill="black" stroke="black" points="1320.92,-259.5 1330.92,-256 1320.92,-252.5 1320.92,-259.5"/>
</g>
<!-- PostService -->
<g id="node20" class="node">
<title>PostService</title>
<ellipse fill="#fdb462" stroke="black" cx="795" cy="-180" rx="56.76" ry="18"/>
<text text-anchor="middle" x="795" y="-175.8" font-family="Times,serif" font-size="14.00">PostService</text>
</g>
<!-- PostService&#45;&gt;PostModule -->
<g id="edge23" class="edge">
<title>PostService&#45;&gt;PostModule</title>
<path fill="none" stroke="black" d="M795,-198.24C795,-205.43 795,-212 795,-212 795,-212 1359.06,-212 1359.06,-212 1359.06,-212 1359.06,-227.85 1359.06,-227.85"/>
<polygon fill="black" stroke="black" points="1355.56,-227.85 1359.06,-237.85 1362.56,-227.85 1355.56,-227.85"/>
</g>
<!-- TagsService -->
<g id="node22" class="node">
<title>TagsService</title>
<ellipse fill="#fdb462" stroke="black" cx="2272" cy="-256" rx="58.53" ry="18"/>
<text text-anchor="middle" x="2272" y="-251.8" font-family="Times,serif" font-size="14.00">TagsService</text>
</g>
<!-- TagsService&#45;&gt;TagsModule -->
<g id="edge25" class="edge">
<title>TagsService&#45;&gt;TagsModule</title>
<path fill="none" stroke="black" d="M2225.05,-245.06C2225.05,-225.38 2225.05,-186 2225.05,-186 2225.05,-186 1819.6,-186 1819.6,-186"/>
<polygon fill="black" stroke="black" points="1819.6,-182.5 1809.6,-186 1819.6,-189.5 1819.6,-182.5"/>
</g>
<!-- CreateGoogleUserProvider -->
<g id="node24" class="node">
<title>CreateGoogleUserProvider</title>
<ellipse fill="#fdb462" stroke="black" cx="2544" cy="-104" rx="116.29" ry="18"/>
<text text-anchor="middle" x="2544" y="-99.8" font-family="Times,serif" font-size="14.00">CreateGoogleUserProvider</text>
</g>
<!-- CreateGoogleUserProvider&#45;&gt;UsersModule -->
<g id="edge27" class="edge">
<title>CreateGoogleUserProvider&#45;&gt;UsersModule</title>
<path fill="none" stroke="black" d="M2435.6,-110.67C2435.6,-123.86 2435.6,-152 2435.6,-152 2435.6,-152 1405.28,-152 1405.28,-152 1405.28,-152 1405.28,-152.98 1405.28,-152.98"/>
<polygon fill="black" stroke="black" points="1401.78,-151.79 1405.28,-161.79 1408.78,-151.79 1401.78,-151.79"/>
</g>
<!-- CreateUserProvider -->
<g id="node25" class="node">
<title>CreateUserProvider</title>
<ellipse fill="#fdb462" stroke="black" cx="2322" cy="-104" rx="87.94" ry="18"/>
<text text-anchor="middle" x="2322" y="-99.8" font-family="Times,serif" font-size="14.00">CreateUserProvider</text>
</g>
<!-- CreateUserProvider&#45;&gt;UsersModule -->
<g id="edge28" class="edge">
<title>CreateUserProvider&#45;&gt;UsersModule</title>
<path fill="none" stroke="black" d="M2282.52,-120.25C2282.52,-133.14 2282.52,-149 2282.52,-149 2282.52,-149 1393.86,-149 1393.86,-149 1393.86,-149 1393.86,-151.97 1393.86,-151.97"/>
<polygon fill="black" stroke="black" points="1390.36,-151.97 1393.86,-161.97 1397.36,-151.97 1390.36,-151.97"/>
</g>
<!-- FindOneByGoogleIdProvider -->
<g id="node26" class="node">
<title>FindOneByGoogleIdProvider</title>
<ellipse fill="#fdb462" stroke="black" cx="2090" cy="-104" rx="125.65" ry="18"/>
<text text-anchor="middle" x="2090" y="-99.8" font-family="Times,serif" font-size="14.00">FindOneByGoogleIdProvider</text>
</g>
<!-- FindOneByGoogleIdProvider&#45;&gt;UsersModule -->
<g id="edge29" class="edge">
<title>FindOneByGoogleIdProvider&#45;&gt;UsersModule</title>
<path fill="none" stroke="black" d="M1992.39,-115.48C1992.39,-127.91 1992.39,-146 1992.39,-146 1992.39,-146 1382.43,-146 1382.43,-146 1382.43,-146 1382.43,-151.81 1382.43,-151.81"/>
<polygon fill="black" stroke="black" points="1378.93,-151.81 1382.43,-161.81 1385.93,-151.81 1378.93,-151.81"/>
</g>
<!-- FindOneUserByEmailProvider -->
<g id="node27" class="node">
<title>FindOneUserByEmailProvider</title>
<ellipse fill="#fdb462" stroke="black" cx="1816" cy="-104" rx="130.8" ry="18"/>
<text text-anchor="middle" x="1816" y="-99.8" font-family="Times,serif" font-size="14.00">FindOneUserByEmailProvider</text>
</g>
<!-- FindOneUserByEmailProvider&#45;&gt;UsersModule -->
<g id="edge30" class="edge">
<title>FindOneUserByEmailProvider&#45;&gt;UsersModule</title>
<path fill="none" stroke="black" d="M1695.03,-110.97C1695.03,-121.94 1695.03,-142 1695.03,-142 1695.03,-142 1371,-142 1371,-142 1371,-142 1371,-151.89 1371,-151.89"/>
<polygon fill="black" stroke="black" points="1367.5,-151.89 1371,-161.89 1374.5,-151.89 1367.5,-151.89"/>
</g>
<!-- UserCreateManyProvider -->
<g id="node28" class="node">
<title>UserCreateManyProvider</title>
<ellipse fill="#fdb462" stroke="black" cx="1557" cy="-104" rx="110.49" ry="18"/>
<text text-anchor="middle" x="1557" y="-99.8" font-family="Times,serif" font-size="14.00">UserCreateManyProvider</text>
</g>
<!-- UserCreateManyProvider&#45;&gt;UsersModule -->
<g id="edge31" class="edge">
<title>UserCreateManyProvider&#45;&gt;UsersModule</title>
<path fill="none" stroke="black" d="M1486.94,-118.24C1486.94,-127.93 1486.94,-139 1486.94,-139 1486.94,-139 1359.57,-139 1359.57,-139 1359.57,-139 1359.57,-151.9 1359.57,-151.9"/>
<polygon fill="black" stroke="black" points="1356.07,-151.9 1359.57,-161.9 1363.07,-151.9 1356.07,-151.9"/>
</g>
<!-- UserService -->
<g id="node29" class="node">
<title>UserService</title>
<ellipse fill="#fdb462" stroke="black" cx="1371" cy="-104" rx="58.44" ry="18"/>
<text text-anchor="middle" x="1371" y="-99.8" font-family="Times,serif" font-size="14.00">UserService</text>
</g>
<!-- UserService&#45;&gt;UsersModule -->
<g id="edge32" class="edge">
<title>UserService&#45;&gt;UsersModule</title>
<path fill="none" stroke="black" d="M1336.72,-118.65C1336.72,-118.65 1336.72,-151.9 1336.72,-151.9"/>
<polygon fill="black" stroke="black" points="1333.22,-151.9 1336.72,-161.9 1340.22,-151.9 1333.22,-151.9"/>
</g>
</g>
</svg>
